<mxfile host="app.diagrams.net" modified="2021-02-05T13:35:22.990Z" agent="5.0 (Windows NT 10.0; Win64; x64) AppleWebKit/537.36 (KHTML, like Gecko) Chrome/88.0.4324.150 Safari/537.36" etag="XM4gINd9pt4SEjHUA6HP" version="14.2.9" type="github">
  <diagram id="twypwReZtRbJoKpriNmy" name="Page-1">
    <mxGraphModel dx="1038" dy="523" grid="1" gridSize="10" guides="1" tooltips="1" connect="1" arrows="1" fold="1" page="1" pageScale="1" pageWidth="827" pageHeight="1169" math="0" shadow="0">
      <root>
        <mxCell id="0" />
        <mxCell id="1" parent="0" />
        <mxCell id="wbDpvQPl_opydrpD9ZE_-15" value="" style="shape=ext;double=1;rounded=1;whiteSpace=wrap;html=1;" vertex="1" parent="1">
          <mxGeometry x="340" y="350" width="460" height="110" as="geometry" />
        </mxCell>
        <mxCell id="MKiLzIN1bhL-pMKs-7dY-1" value="" style="outlineConnect=0;dashed=0;verticalLabelPosition=bottom;verticalAlign=top;align=center;html=1;shape=mxgraph.aws3.database_migration_service;fillColor=#2E73B8;gradientColor=none;" parent="1" vertex="1">
          <mxGeometry x="200" y="280" width="80" height="81" as="geometry" />
        </mxCell>
        <mxCell id="wbDpvQPl_opydrpD9ZE_-2" value="" style="edgeStyle=orthogonalEdgeStyle;rounded=0;orthogonalLoop=1;jettySize=auto;html=1;" edge="1" parent="1" source="MKiLzIN1bhL-pMKs-7dY-2" target="MKiLzIN1bhL-pMKs-7dY-1">
          <mxGeometry relative="1" as="geometry" />
        </mxCell>
        <mxCell id="MKiLzIN1bhL-pMKs-7dY-2" value="" style="shape=image;verticalLabelPosition=bottom;labelBackgroundColor=#ffffff;verticalAlign=top;aspect=fixed;imageAspect=0;image=data:image/png,iVBORw0KGgoAAAANSUhEUgAAADIAAAAyCAYAAAAeP4ixAAARHUlEQVRoBd2a6XebdXbH54+Z9pwyIZtX7YslW/K+yPsSO5sTJ7bjBJKwJECAhhI6QKYHCmWG6Ux7TimTzjDMDBSGQ0hI4sT7on2xNsu2vMuOLK/fnnsfWZZtycC0fdG+uImOEz96Ps+9v7t87/Oj62+/g9duvvt/2ojhRwThcnsxNz+HSGT+f9aW5hFJaHOILG3Z0tIcfrCFZ/meXW4fO4FBFh8vYmMDsDjXYXGu7rA1WJxx5lqDhW0dVlfURtZh3WUbsLoTGWD1ALZk5gVsicwH2HyAffNvP/ieFxcXtkCWl0Mw2VeRUzcBTY0PmhovtLU+aOvI/MiuH0V2QwDZR8jGkNM4hpymceQ0TUB3dAK6Y0Hojk9Cd3wK+hNT0J+chr55GrnNM8g9NYvc03NseS3zyDsTQt7ZEPLPLiC/dRH5bYsoaHuMgvYwCs6FUdCxhMKOCArPR1B4YRmFF1ZQ9NQqip5eRdHFNRSTXQbKrgjAkcjcFkgkEoLFsQJNlQeqCjtUlTaoK+1QV9mhrnYgq9qJrBonsmpdbJq6EWjq3dDUe6Bp8EB7xAtto48tu8mP7KNko8g5FkDO8QByTowh58Q4dCfHoWuegK45CN2pIPSnJ6E/PQV9yxRyz0wj9+wMW17rLPLa5gRrn0f+uRAKzoWQ37GAgvOLKLwQZhjyDoUkHQ8OLQIxO1aQVTkCVbkVqnILVBVWqCutUFfZokB2ZNU4okBOaOpcEIBGoGlwQ8tAHmgbvchu9CG7yQdtkx9agjo2imyGGoPuxFgUaBy6UxPQM1AQ+pZJ5DLQFHLPClB5rTPIayOoWeS1zyH/3DzyO0IMQ55JDGJfgZpADBYBJAZDIHvDZNWNQFE9ArFhBOmlI0gvc0NU4YGs2gt5rQ+KOh/kdX5IavzIrBqFqHoUsvoAso6OI6f5+8Pkx2AWOMzozOz2iH0FWRUuKA1mNsErm57ZDaOpdUJZ5URakR3iMifKWry4fGMcv/h4Fl98u4g+0xIcnhV4A6ts9LnfHMGf74fx4W9DeO7tGVSeD0J+ZAziujFkn5hA7unv8swcBJgQn5ndIMshmMkj5U4oy8xQlpmiMGaoKjZhKNQ2PeNAeqEN2jonXn8vCLMjwhkEAKbn1mByRHC3+zH+eHsB//FFCB9/FsInXy3g64dhDNmWEZxew/oG2CyuFfz0n+eRe3oC0vpx4dzsGWYUYiEUPbXC2W27R6IgKoMDylKTABKDiYZa3JlJzbfg4vVRTM+u0b3jzqNFvPT2BKravFDXjUBc7kJGqSsWZukGNzIMHmRWeCGp9kHTOIqq8+N48R9m8PWjJayv0wNYx3M3ZyH5PjDt85zNKE0nAFkGgShKjVCyRYEM5m1nJi3fjBd/GmCA/7wTQmnzCFIKbBxisgon1DUu0JlJlgAoo2ma/FA1+CGu9iOjyo+y9nF8fjfM13zl/TnIGr7LM3OcmpODlNmhKDFCUTIswJBX4jwjL7NAU21DeGkdtz6bxZPZZohLbT84m3F6PkbpeZTTs/LIKFIMftz6chHhyAbyWiaQfXIC+mRnpm2O60xiENsyVKV2KIqHGSQRjLjIhKoWJz+5tqte7NeakFVNteYHpOYmITXHw+hOBBjkwuvTfO2GZyahPjqeNDVTnaGimRREWWKDvGgYiuKhGFB8mIkLTahodvDBto9EkN/owMEcE6Rltl0wWd+jzhCMssGPNIMPhrYxuPyrfO26S0Gom+LrzOSOOjPDHcAeIFbIi4YgLxrcDVNmgqjAiPJmO8LhdTwOryOyvIF3fhVE0TEn0gosOJxnQUaRDVKDHfJKB5TVTqhqXFDVjrApa9yQV1ONcXOtEVd6YGgN4J/+fR4rqxsILwlWd5FAxqBrTgJzdobbGerXdh922zKUxVbICwcFSwAjLhhGRbMdq6sbuHDNi3/8dRCR5XV+igPmMH7+0RQuXR9Fw3kPik+MQHfEBW29C9kNI9A3uVFy2ovGi6N45o0gfnlrDkO2CIcSPRCCufTGFFbXgLpLE1A1BpJ3AGemuTdLCqIoskBeQCADCWFE+UOoaLbxl5951o2/lg0it96GV28G8G3XAmbnhHRM/2FtHQhH1hFaXMfC4jqWIhv8M/5lALPza7jfG8b196ZQdNqPfflutL86yf9cd3ECqiOBPdqZKW40k4BEoCgyQ1YwAHlB/26YkmFk5g2h4qSNPdB2xY30PCNkJWak6I1IyTVxf1Zx2oXWqz689NYY3vp5EO/+egrv/MsU3vrFFK7dnED7tQCq2n2cnjMNI8gsd0NV74W02osLr00KZ+TpcaiOjCLnRDzMRFxvNsVdM4HQXLPVNFJBtEagKDRBlt/PlggmM3cQ5SesMZC03OGtDqDcAoXBAkmJBZlFFj4zqflWpBaQ2ZBWaEdGiQNigxPyKhfUddsbTUmVBxeuB7dAGvzRzlnonmOdMzWapyd5BEgIYiKQAhNkeQTSJwDt8Mw2kOdHkKYf2lZn/jtds6TSjQvXJ7ABoPapMSjr/bE6w545Gd81B3meSQhCHpHnGyHL64MsrzcGE++ZDP0Ayo9b+KmduexCmi4KElc0/1IYAml7ZTwKEoCy3sft/2bRpJlmawQI8nAmgMzvDi0Ckeb2siWCydD1w3DMzAfy8ituPCHvS9gBbMHs7pqFAW37PKNtcONQgRNX3gzytWvOB6Cs8woDWlwHEDszzRM8aVrddEZ2gFBoyfOGIdUTSE9CGAIpazJzkzcxuYLq0zbsU/YjPXeIW5v4dub7wFBfJjE4cbjAgcanRzE5s8bXru4YhaLWy8NZfAcgTJtCWqaxmTSBhCCy3CFIdT2Q6rsh1e+GycjpQ1mTCY/DaxgPLvPT+80fplB31g5KzQc1gzicPYS0XCNEhSZIis2QllggLSWzQlxiRUaRFWkFVm40ZRUOHL3owydfhvha45OrXGhrOvxQ1HgEEGppeMqMPzPjyG2ZSwJiWYJMPwSJrhtSMoLZ4Zn07F4YjpqwtraBU087cPXvPBgPrvBNjI4t449/nsWNdwOg1Fzf5oThpAPFR+0oOe4ApeXG8250XPPjzQ+C+PybEMaCqzEASs2tLwW41tQyiFsYmxP0ZnReSNBI7BEGGYQkpxuSnK6EMARS1mTkA3nmkgM/zuiGtGAQrc868fGnU7CPLHFnzHcX/WN9fYOTQ/zPliLrcLgjuPWnOZy7NsqtzBPZNpy7FuBr15zzQ1HthvbIdg0gFmbHA6zOJAfRDUCS3cUgWzAUYkKYpWt7YGg08o21XnYgRdMLaf4AUrT9OKDuR7puENpKE6pO2dBy2YVLr3px5XU/rtzw49Lf+tDynAc1rS7o6u0QFVuRkmdFZrENqioHRKUOdLwc4GvXnPNBXjWSUNAgGFJnSGpKCiLN6Yck+5FgOV2Q6DY9I8Cka7pR1jjMX3b2sh0pWb3bOgBqOCUFQ9wBpOuHkKobQopuGKn6YT43GQUmiIstkBusguTEcpMwAohK7Oh4eVTwSLsX8kpX8uHs2CjrZtaRDVZGt1V2k2UJBCLWPoJY+3ALJi7M0rK6UHYkCnLJjsPqHsh2FM1dI8C24SyZBmCHqMSGjmuj/JCqN0Hqk0yaR/0sApK6STLvbpDsPog1DxkkEYwAMsRfdvK8FYfV3Qk7gL1hdmsAJARSiJ254mOPVLd5QGNzUt2syc+KZgKQBZjMYUi0vRBrOgXTCkAcahRmOV1IUz9Caf0gn9s33/Xhx6mdkOipC+hP2mjGJs1NUWOHBkDKjLLchieyTLj5oVAQq1o9kJU79hABfSzPJgfR9EKU1Qlx1oOEMKmqhyipG+AhiGhu/MyLtKwe7JN2IU3bC2le4q45BhMXZooyM8RFZhzKEc7Nmx9M8AOiAavyjJtBsmq3dwAxQaORQCZZON8RWlGPaHogUj+AiEA2YaKhRp7ZBKGC+NU3M6DU6g9E8PZ7fpQfM0Kk78MBZQ/2K3pwQNWLg1l9OKzpx2HtAA6RaQaFopkzBFmJCdUtDvzswwmMjq/wtb6+H+L0XXXWDZmBkgDpzQlgjnhZON/lkeUVAUSc1Q2R6j5EarI4mGiYpSo7UVo3wGekodkIfXk/fvenSa709DiDUyt40B3Cv/02iLffH8XLf+/F89c9eP41D15+04ebH4zho0+m0Nm7gOC0UAxpZP70y1kUNtlx9Ck3X7vqzAjrAPFa83YNwAPd0SCvNbZ5JAai7kYmgajuJYRJVTxAaW0/f9mZpyz4m/QH2Cd+CFVhL1ov2/Dhv46hs3sevtEIQgtrWF6hqVAw+kw/8wWWGeSXHwVx7qoH2moLDucM44DWiPYXvFEQFySluwWNLeHcwysN2s8kBlF1IVN5jy0GExdmKfIHKKnti4KYcVDWyR2ASNuNQ4pH2Cd9hAPyLmRk90JR2A9dxRDya4aRX2uErsoIVekwRHmDHGrUl9E8Iy028nCWkWdE+1WPANLi4t5MWGskkJrq3byfsSQCMZrDEKseIVNBIN9uh4mGWYr8PkpqBJCW8wJIog6ARgGxvhciXR8ydX0Q6fshzh2AJH+QVZpN7SxeaqKxue2KAFLZ4uRJM/kWYISXTbQ52+URo+kxREoC+RaZirsJYVJk91Ba28vZ5XirEfvF95O2M4nmGVZoNtWZEkEIZJgyE3cApy67+dokAoqLzVHRfFM4j/eMizdnyUEUD5Ehv4tMsgQw6Yr7kOV0Ihxew63fj+OvDt1FirxTgIm1M4lHgPhJc6dulpE7hH3KAfzu8xnOWppKC+Sl1AVEl02xLUAUppZAArzbTOwReScyZHeRIb+TFGZf+l08+6KVn9xnX04i19CLn2Tcw5OiB5yeRdR00hiwYwRgUaOgn1UaajRpbD6U1Y+D6n4UNVrwxTdzfM0X3vBzb8aDWWzZtHNz5uSdJi1pE4JkMsgdZMju7AnzRNpdnLtkxtS0MFzd/nYGz7/iQEltP8TZXTgkf4gnJQ+xj+0RnpQ+wn5ZF/YrurnRJMmJRuYXbnhwt3OeAaZmVvH0NTcOawe/U9CgnSYtaJODyB4gXfoNMsi+A+YnaXch0Xbi1RtODJsWONvQHU3PrsBoWcSde7P49PNJfPxJEL/5fRB/+GIKdx/MwWx7jNk5oYbQStxofYzXbvo5o1HR3Dwze47N1Q7eNicHkd5HuuQbpEtvfyeMWH0faYr7IKCD4nvINfSg4xkL3vvQh8++nEJ3Xwg2x2O4vUts9LmnP4TPv5rG+78K4MJVJwrrjEjV9uGAuo8HNGV8AtijN6O0TGtzeidgd2gZF5FJIOLbSJfc/l4w3AFkCS0NFcv9ont8XvZl3Md+yQMcUjxEqopam0dIUXVxjaEQe1LWhUOqHk7NrGwWUVpOLJxveSa6cOIEYOf3AJKCZEjuIV38tWA/BCZBO0O9GZ0XMh6fWQfYLWjslc2ShlmljV9q2BMkTXQ7CkOeoTCLnhfOZpSWqc4IBVNoZ4S+jLtmHgGo/ScImjTjIFid2dTMSAQUpFlBa97cANBKg/YzVGOM0TUgbc2im2ZenVv5pQZ6Q8Pi2BFaK6uLGBpagEjaBfIKGYUZm+wBKJuJyBQPuWiKVV1gU3eDGk2JpgcSTS/PM9LsPp40adqU6QYg0w+yOkNSE+lmJAKSkTxLWjMJ57QFoJWGsoTMBmWpDaoyO+80aa9J22ZanasrRvilBnpDI6cuyK+dLC/HTYiPoy/VGI1hGI2LW2Z6DKr4u8wc5kGMhrFdZlkCjc27zBoBiYAkzZLFPtsiMNuWt5t9GeaYrfDqnNbnbI4V9gRlLMp69EJQbNTl15xC86Au+C+xyPICtiyEyPL/gkVCoFdNBBNex6JXs+jeGeT/y4tn/wVTKjZWQKAzoQAAAABJRU5ErkJggg==;" parent="1" vertex="1">
          <mxGeometry x="40" y="281.25" width="79.75" height="79.75" as="geometry" />
        </mxCell>
        <mxCell id="MKiLzIN1bhL-pMKs-7dY-3" value="" style="outlineConnect=0;dashed=0;verticalLabelPosition=bottom;verticalAlign=top;align=center;html=1;shape=mxgraph.aws3.bucket_with_objects;fillColor=#E05243;gradientColor=none;" parent="1" vertex="1">
          <mxGeometry x="366.25" y="372" width="48.75" height="41" as="geometry" />
        </mxCell>
        <mxCell id="HljNFAt1cwT9hR2t2E4F-15" value="" style="edgeStyle=orthogonalEdgeStyle;rounded=0;orthogonalLoop=1;jettySize=auto;html=1;" parent="1" source="HljNFAt1cwT9hR2t2E4F-1" target="HljNFAt1cwT9hR2t2E4F-4" edge="1">
          <mxGeometry relative="1" as="geometry" />
        </mxCell>
        <mxCell id="HljNFAt1cwT9hR2t2E4F-1" value="" style="outlineConnect=0;dashed=0;verticalLabelPosition=bottom;verticalAlign=top;align=center;html=1;shape=mxgraph.aws3.documents;fillColor=#759C3E;gradientColor=none;" parent="1" vertex="1">
          <mxGeometry x="40" y="440" width="80" height="80" as="geometry" />
        </mxCell>
        <mxCell id="HljNFAt1cwT9hR2t2E4F-4" value="" style="shape=image;verticalLabelPosition=bottom;labelBackgroundColor=#ffffff;verticalAlign=top;aspect=fixed;imageAspect=0;image=data:image/png,iVBORw0KGgoAAAANSUhEUgAAAFAAAABQCAYAAACOEfKtAAAXM0lEQVR4Ae1ceXhTZfa+f8xPnVEUlQJlKRRautOFFiigAq6jjqioiKIIXei+N83SpG3WtmnSvelG2TcRXNgU0RHFZQZXQFEERxTZZKdAZXt/z/lukiZt1jY6M880PKcppc9N8nLOe855z/kuF1YpxtgqCcZWFyK8uhARNVJE1EoRWStDZJ0MUXVFiKonK8a4hhJEG8jkiGmUI6ZJgfFkzUpMIGtRYWKrmlnsQg1i2zSY1FaKSYtKMXlRGSYvLsOUxeWYskSLu5aSVeDuZTrcvVyHe8hW6DGVbGUlpq2swrRVVZi+uprZvWtqcO/LtbiPbG0t7l9bh/tfqccD68ga8OB6MgMeetWAh15rxF/JXm/Cw6834+E3mvHIhhY8uqEVj25sxaObWvG3TQvxt80L8djmNjy2ZRFmkL25GI+/RbYET2xdiiffNtq2ZZi5bTlmvrMcT727Ak+T/X0lnnlvFTgC8D8XxErHIL5CINa5AGKTUxBnbGnDjDdNIC6xDSIB2AVELkwvYgCaQCQvdMcTo8kTGxW8N9rwxIlGT4ztsSfaAHFNTacnOgWxyeiJTXiEPPGNFjxi1xPbbHuiyRvJE61AXAkuVC8CmX1PlDkN504QlQ7D2S6ILKQdhbOLILKQtgznxi7hbB/Ex8zh7J4nciE6IQ+gQxD/AE7sCYjdOLEOD3QDsSsnGsP5DUecaMcTLTnxHZ4TGYAmEB17oudA9KgnWoJoCmcPgOiME2caw5kLrihAiI7Mtif2caIpsVhkZyMnEohcsLYAzkC0LnH6ONGyxOGCtAKYQawQ2vVEaxA9F85268T/Ek7kgsoFsAJR1wliHyd2Ftv2OJELKs9HdxD7ONF2x2KZnflimwssy0OgmyBah/P/NidyAaV5IBBtemIfJ9rpnXlPfPzNxeACSnPhEMQ+TrQJIi8+LAI3RkMAOgOxjxNtcSKByI1R56C3ILrLiUwKMwoQ0U0KjGuUI6pJjnHNCownScyZANGTEseWANGtY3Gnd25jUhjnTwC6CqIHOHGcoQShtVL4V4kQWCMBCRH3tJXjviUVmLZYywAMaZAhuEGGqGaFfT2xJyBatn1MT+xd70xaIuevyoYViCykHSSWXnDimEoRAqpE+Nvyaqi2b8SWfbvx3YmjOH3pAi5e/g2nL13E9yeP4c39e6B6fxMeXVkDAjOSgLQlyvYWRA/0zpwfAWgBYsDvwIkh1RKM1uXjxVdasG3/17h2/RosH9euX0fHlSugZ8sHgfrKN5/h8TX1zCMntml6oGy7KIXZVbYd64mcnzILJhD5UPYcJ0bWSOGvEyC6rhird/3DjA2BtXX/HpS8+zpeeKUFDy+rwn2LK/DI8irMXb8Q6vc3YcfB782/f+Hyb6j46C2EN5UgulWFKV3HAz3xRA9xIjdakYluIHqAE8OrpRhVnod7W8vwzbFfGBhXr11Dy87tuH+RFn56IUbrCxBUI0FYnQzh9UUYW1+EkDopxtSI2fOstU14a/8eM5AU2pRgoloUngGxN5xonLEwAM0gKvlwZp5oArEHnEhDqtHleZjarMHPZ04yAA6cPI6nVtbBpzwHwVVip4OqmGYFQuulCKorhGjbOrT/1sGu849DP7BhVVSL0vMgusuJG1rAjZJngADsCqIpsfSEEwMrCtiI4Guj5311+CdMaJDDV5vn8njANO2jiZ9fjRjPrm3CsfZzDMQPDu5jGXr8QvW/jxPZfKWZB9AeiD3lxGHqTKz44iP2YQ+ePoGJDXKM1uaDODGCxqVORqbdZiwtKgTUSvDUywaWsenCK3b/A8EGGStzaGQau6gUMQvViGnTIHZxmZORqYuJxVmd+EYzON+SdIwqyUA3EI3Z2SqcnXUsFUKM0GThmeW1DLyr16/huVUN8CnNZpM+d6Z93ebOLSqMqZVgwYZl5iye9eZqBNXLENpYxMJ6xpp6zFzbiGnL9AhvUWD8olLcY3fubANEtziRz86cb3E6GIhyGyC6y4naAvioM/H3/d8wAJd//iGGqDI8OnemcG7c+R67/o+nT+CexVqUfbgF3544iivX+PLoyPkzePmbTzHj5QZEtCodDO+dgOgCJ3Iji9NgCeLoXnCirzobDy/Usnru0pXLmNakhl95ntXItLczlnFNckQ3K7D/1DEG4tH2s+yZvpzruITjF3iepL+fvNiOpC0rEN6qcM8TbZU4dupEbmRRGkwgjqJwduaJGvt14mB5KrTvbWIfaPPerzBMlYFQnRBdh/fu9s6WnEgrJFTmFL7zqhk4AlG4bR2mL9XhrsXlmPPqQrx/cB/79/bLHZi1vgXRbWr3PNEWiDY4kRtRlAqXQHTCiYFl+RiuzMB7B/jwzd+4CkOV6b/LjCWqsQSxLWpQCB8+fwaPraqFf60E0S1KTGhVI6ypBGOb5HjrwNcMxE8PH0T0QjWmLNW6B6IzTnzVAG6ELAUjZC6C6IAT/TU5CNEW4OCpE+xNP7ZID19NNgPQNDL15IwlsrEE9y/R4f6lOoQbihHbqoHlQhMV2/cu0+PExXb2flK2rERUq8r97GwJYjdONIDzkRKAKejqiabE4ionjlJlI7qyEOc6LuLy1auYUi+HX2mu05FpTzlxfLMCkYYSkDdaboWZpDCa9gU2SLF018cMQEoqoU0lzAsdb4XZSCy2wnldPR5c10AAJsOHeWEPPdHIid7FqUyYpb6VEsjEmiL4leZ0jkwdDO97w4mOVuvCGouRunkFA3DviSMIb5YjpKkEUa1KTF7iZjh3A5FfreOGFyaBgWjyRFfDWZXNdMSRigx4SRdgck0xKrdvZhn4yrWrmFRbjNGaHOuRqQf0RHf2E0lPfGJNAwOQdJ7Pj/yEZbs/AYVz7OJSVuIwb7S5n2jDE7uFcz0YgGYQ3fBEf2U2vItSGIj1O7aCPM/02HX4J4SUC+BfmmtjZPrHzZ3Ht6pYp7LnOC9mmN4fPe8+fgi5b69FRIsSk5aU8wue3ZY8HYHI7yZywyRJGE5m8kQTiF2ysyUn+ikyMViahBidBF/+8qP5fW3Z+yWS1i5ERIUIo9XZ9qd9DsK5p5zItmVt7CfGtKgwfWkFnn+1FXlvr8XqPf/ErxfOm9/zqq938u3fknI7m7I2QLQIZ26YeAHsgmgnnIfJUhCoysFeo1iw79cjeLKtkoXyQFkSRimzEFia52TaZ39Q5VlO1CC6RYWIJjlCG4sRZJBh2lIdmj9/3wzihn27ELVQxZc5Loczv+TJDSUAbYFohxPJE+8QxmHFpzvYG/jm6CGEluXjTkkCE2bd7Z1NJY7jYtuzuzgxrSoENEiRtXUNOq5eYZ+j4uOtGNuicLtO5IaKEmEFYqGNcLbwxEGSBZheKweJo79dvYIHDWrcKY6HPynbDupEu8P7XsxYerv4PqZeCsUHGxmAZzsu4a+rajBxUZlrIK6pBi2+c0OECegGogNOvE3wEnTv8i+67st/4raC+R7XEy3XjT3NiZZ1In1Ppc3nRw4yEHWfvI2xzXLXi20TgENEroFI9aKXKAEf/vAde8GEVc0snLtJYZae6KB3tt4Ks+bEEL0IZN2PYPRAT3RwBCPYUISS9zewz/PxoQOsRuSPYbi2s815F8SDvNApiNIUDC1Mgp88E0fPnWEvSKE8WLLAtgDhpHe2t4tD4kOwrgBBFQUgZdtfm8+0ROvE4jlOjGyWY/a6FvZ5qK+eurSCF2SdDqr4cyycd0EczCDaCmcLTvQWJyJElYsT7edwvuMSosqFGCpNhksqjoszFuaVOiG27tuNjw5+j6lNavhosmx4omdAJAHioRXVjM+pln1oZTUmtGn4w0AugMgNFhCAFiA6COfh0mSMLErFZL2U2ajidKbkeEpPpE1Z/7I8TKovYf00ucWRc6fx/CoDE2ZDK8VuK9udUpjtE1XjmpV4YHklaz+pBSUAadbi/ERVJTtRxQ3OjwMPYnynJ9oFMRnDC5NxR8F8ZkMKkzBMmsybLAXDZSnwKUqFT3EqRhSnYUQJWTpGyjPMw/tRykxWJ1KhbdoKIyWHuhb/slyMVGcjulqGM5cusLCiLzSIl21dh+GaLATphV1A7B0nRjbJ8fjqely/fp0JsNOX6TCBhlWWx9LsemIluEH58+EOiD6FyfAvycAYeSYCyBRZCFRkI1BJloMgVQ6C1bm8afIQUsobG96rsxFWLkC4VojQ8gLQxI8K7nCdCJF6MSL1EoRWCHGPQcnGmGcvXcT63TvNQC79bAcCKgTwM/IiZejenu0LbShC4oal7DW+PXEE4+msn60NCDsgcoPy5sMKRBbSxsTShRMHCeMRrMjGvmOHcezcGZZMKKHYM/qdY+fPYs+RnxGozkVomQD7jh/Br+3n8PGP+5gnRupE2H/iKI63n8Px82fZ79O/04NCipKKYNNq0ICKHh/+uA+TGuQY4alBVY0E9f98l117w3dfsV0cd86xcANz56ETxPl8OFuCaBHOAwviEKLMwWmjSMle1cYXKrLJTA8COFCdg7AyAU5f5EPzu+OH4avMRKROzK53HaY/YOFE4H32878QUiGEV0kKZq+sZ3xI16Rh/TMr6kDj07AqCQtpVz3RxIk0d2ZrdY1yHDh1nL1V0bb1RgDppKlrp0y5gbkvgQdxHu+JAkecmAgfSRJiyoSYqBVjglaMiRVkEsTqJJiklyK8VIDx9Hd9ISbqCzGlqgixlVKQAEErJJOri3B3bQkmVcvgTzyoycVddXJMrVdgaoOS2TSDCtMNaoTrxQgoy0dIRQEbD0xpUGDnzwfYh6UuSLjlZYwqz8XYaksQnXOiaWTqqxdA88Fmdr0j589iSlspGwuYlG27IFqEM+eVQwCaQDSGsxMQvQTzMUAQB6+COHgJ4zBQFA8vYTz+lPEsJlRIsP37b7Bxz2fwLkwCtX5DZcnGuXMGhhWlYFhxKnxK0o2JJRsj5BkYocgAaYsjlZnwVWXCV53FEkuw8RwLeSKNCPzL89C2czv70PSl7L2N8C0jEF0/ZRrZUIyR+nzEv7aI0QRdp+jvryGwrtDt886cV85c8CDOM3qi65xIKg4llYHCePTLfREZaxex+pDe0OWrVxCmycNAcQLLzsOLUkHmU5zGjLIzAUeg+SoyWTiTijNKlYXRqmwmh42x0BPJC0eX5mKIMh3a7fzkj17H8Mk7jA9NHUtIpQghlWKEVIkRWi1BGFlNIbOgKjFG6QQIrS1E0buvsZU6usbre79AcJ0UtI9jOR5w6olLteAGZM/FALsgOuZEUnH65byIkdJUrNj5Ab0X9qCS4GzHRcTqClnnEqLORYgmD6FGCyvNR1hZPsaWCTC2vADhWjIhIirIRKDEEqWXgMobApG8cJgyA2E6EbZ8+5XpZaDbvpnNnanlo/45vEqCCfUliG2QI9agYDapUYnYRgXualZj5so6KN/bgF1HfzZfY93Xn7LNsEhDMX/qvkvbZ+qdu4XzEv7kPTcg+0XYBtE+Jw4VJWBwQTxuzJiNB2uV2HuUV3wv/NYB1Zvrce7SRfYGT11oZ13LyfbzOHHhPE66YZSJ3/5uNxNlB8iScH9TqVl/pPJmwbo2eCvSWMtHUhi1fZSdadRJierUxXaz0YD9/G+XzKDRN/86/StEW19BYLUYEQ1F7NYFMU1unndeUg7uziwCkAfRbjhbcOKQggT0z3kR/bJfQOEbq8zZ9qtDP+JuvQw3Z8/BjgPfgsCk2YgpI3d9pjWMrj+jv7OfG0sWmu6RF7640oAzxv8UEnEfaC6DtzyNJReTnhigFWBygwInL7TbvC7pfj+c+hUb9n6BvC2rMd4gZzuKUQ3FvboHBHdn5gtwCcT8OHgL4nBT2rMIKErHxt2fmv9HWz98h2mKt+bOxRBxInyLUhFdLkQMmVaEGK0Y4yt4oyQzQcdnaMrSlKGZVckwqboIMZUSPNRUymYs1I0YPtpmfp3Ne79EWIWQhTNxIn/KlJ+xhOiFGFspZr3z9GYN7m0pZcudtOB538JyTG3RsJto0KrxaJ0AY2ulGNfDG2lYhjN3BwFoApF5o31O7J/1Ap5oLMdPxuE5Fcpxywz4c8Zz8BLE8bMVSRK8RYkssQwSxWMQhbuYLBHekgXwLlwAagGHSJNZdh4mS+YzMyWZ4lQMliWxbuWMsV40oVf1/hYMk6fDV5XFONG2FCZEgDYfY7QC1rEE6AoQqBMiUC9EcKUIYdS5uLxaZ7t37sqJ3B0Zc3BH5hynIN6RMxfDhYm4ZJy+Eb9N0orBxc9gcphLoqyFsk0ChC0Vx6ckDdE6CTquXGbY0WZqyro2DJAugJ86B0H2jqU5GFRZlzjO60RTse2ME2l4z92e8Ty6gWiDE71yX8LtWS9AsWkt6xTo0+3Yvxd36aS4IW0WBhfEMWWbMjNpi9T2DRYmYLAoASSDkQ2RLDCvkZAMRkYCBO0n8hsQGRhalMIEiB0/fIfdh3/CfQY1bhXFsfqQShxW5qiz4afJgZ8m9986d6b74nC3pz8PMldB/FPy03ikTsX6YQKRPEWwfhn6Zc1B/9y58BYmwFuUgKCSLASUZCJQnolARRaCldkIUmazNRKSxELVuRhL5YwmnwHoy0DMRHhZAWv5aGRKnkhDqiidmDe9BOPIKgsRU1WI6KpCG+H8x82dqU7k+qc9h/4EIoWyK+GcNw83pDzDwnn5J50dwYZdn7LkclP6bGz5+gtWvlCYm4xKi4Mnf2XqDSk4P58+ifaODhw6cxIRZQIMlCQy8OjnJNayMuRCO9v5o32bTrvEfka/88uZU5hQLeu+AeEgnD09Y+FuS5uN/ulGENNdA5HEh9uy5uCG1FlIWGbAKeOg+tDpE0hb02ruRqiMoY6EyhEyqu3IG0kGO3ruLPNeUmsiSgXwEicgoqwAx4w/J8+m8ySdz/S9tdH1GIDqbBsbENYzFstBlSc5kbstdTb6E4hpz7FQvt0WiDY4cWDePHjlzQOFdLgiB+98u8uUMJn0RMU01YUkf0Wq8xGpyUeEOp/t4YyQJiNcnc+AI/HBl8TXojSWVCLLhRinFWFchQjRFWJE68SI0UsQoy/E+MpCjK+SYgIzGXumpEKaor0Zi6lO9PzcWcXaPu62lNkwg5juJogkheXPxy0Zz+HWrDko3rDGXFiTt/gXpbOCe4BgPitzBhbEm9dIOkubRHNioUVPU3Kh7QcSHlgPTeID9dCsf043Cw8kh/HHMH6fs31O584tSnC3pjwLE4hW4ewqJxpBHJD7EvPGB6rl2P3LQZahado3yJidrYb3DubOpnVjy10cT59jsQzn3nIid2vys7ALoq1wdlJs35zxHIYUxGOYMBED8+e7NjI1LTS5UCeyY2kemDtbgtgjTmS3/lOC65c8C/26gNgjTrRQtskbiR9pXGoemVoo2+7s4tgqtn+Ps33WILo+MuVuSXoGPIizrDyRgdgTTnRjxsK2wizmzr3alHVx7kxJxZRYerWzzW77JwcPoB0Qe8yJZhCd64l2V+sc7Cf+x3BiIwG44GncsuAZ9EuiUJ6FW8nsJRa3ONG+nuh0jeS/iBO5mxMJwKfBQtkIIgPSAsTeciIN7l0f3vd8Z5tO3v/R+4nczYlPwRLEWxyB2MeJFjfmLWY35uX+kjATXUE0hXNXT+zjxO7Zmftz/Ew4ArGPE7veItpaT2QAOgOxqyf2cWKnJ3J/jnsSBKA9EPs40fF9trmb5j8BZyD2cWIniNa9swwMQHdA7ONEa07kbpz3OAjAm+Y/2WNP/F/mRO7GeTPgDoh9nNgZziRAcDe8RAC6AuJTTjsWqzrRrbbPtNDUi965ixTG9ETztM/JfXGc3lzI/niA+7+5j4FAvMEI4o0snJ/ATTaz81O42dg7m1Qcm5xoGlTZmvZ10xNNq3XG3plWjmnBU2AhhXXZlO0mQDg4lmbzli5GPdF0cyF2/0QLEOn2Bd1uzMtuWM7frNxSxfl/1XxPCXdRzIMAAAAASUVORK5CYII=;" parent="1" vertex="1">
          <mxGeometry x="200" y="440" width="80" height="80" as="geometry" />
        </mxCell>
        <mxCell id="HljNFAt1cwT9hR2t2E4F-7" value="Unstructure data" style="text;html=1;resizable=0;autosize=1;align=center;verticalAlign=middle;points=[];fillColor=none;strokeColor=none;rounded=0;" parent="1" vertex="1">
          <mxGeometry x="40" y="540" width="100" height="20" as="geometry" />
        </mxCell>
        <mxCell id="HljNFAt1cwT9hR2t2E4F-8" style="edgeStyle=orthogonalEdgeStyle;rounded=0;orthogonalLoop=1;jettySize=auto;html=1;exitX=0.5;exitY=1;exitDx=0;exitDy=0;exitPerimeter=0;" parent="1" source="MKiLzIN1bhL-pMKs-7dY-1" target="MKiLzIN1bhL-pMKs-7dY-1" edge="1">
          <mxGeometry relative="1" as="geometry" />
        </mxCell>
        <mxCell id="HljNFAt1cwT9hR2t2E4F-12" value="AWS Data Sync" style="text;html=1;resizable=0;autosize=1;align=center;verticalAlign=middle;points=[];fillColor=none;strokeColor=none;rounded=0;" parent="1" vertex="1">
          <mxGeometry x="190" y="540" width="100" height="20" as="geometry" />
        </mxCell>
        <mxCell id="HljNFAt1cwT9hR2t2E4F-16" value="" style="edgeStyle=orthogonalEdgeStyle;rounded=0;orthogonalLoop=1;jettySize=auto;html=1;" parent="1" source="MKiLzIN1bhL-pMKs-7dY-2" target="MKiLzIN1bhL-pMKs-7dY-1" edge="1">
          <mxGeometry relative="1" as="geometry">
            <mxPoint x="130" y="422" as="sourcePoint" />
            <mxPoint x="170" y="331" as="targetPoint" />
          </mxGeometry>
        </mxCell>
        <mxCell id="HljNFAt1cwT9hR2t2E4F-18" value="" style="edgeStyle=elbowEdgeStyle;elbow=vertical;endArrow=classic;html=1;exitX=1.045;exitY=0.63;exitDx=0;exitDy=0;exitPerimeter=0;" parent="1" source="HljNFAt1cwT9hR2t2E4F-4" edge="1">
          <mxGeometry width="50" height="50" relative="1" as="geometry">
            <mxPoint x="340" y="490" as="sourcePoint" />
            <mxPoint x="376" y="465" as="targetPoint" />
          </mxGeometry>
        </mxCell>
        <mxCell id="HljNFAt1cwT9hR2t2E4F-20" value="&lt;b&gt;Landing zone&lt;/b&gt;" style="text;html=1;strokeColor=none;fillColor=none;align=center;verticalAlign=middle;whiteSpace=wrap;rounded=0;" parent="1" vertex="1">
          <mxGeometry x="364.5" y="414.25" width="57" height="30" as="geometry" />
        </mxCell>
        <mxCell id="HljNFAt1cwT9hR2t2E4F-21" value="AWS Migration service" style="text;html=1;strokeColor=none;fillColor=none;align=center;verticalAlign=middle;whiteSpace=wrap;rounded=0;" parent="1" vertex="1">
          <mxGeometry x="200" y="370" width="57" height="30" as="geometry" />
        </mxCell>
        <mxCell id="HljNFAt1cwT9hR2t2E4F-22" value="Databases" style="text;html=1;strokeColor=none;fillColor=none;align=center;verticalAlign=middle;whiteSpace=wrap;rounded=0;" parent="1" vertex="1">
          <mxGeometry x="51.379999999999995" y="370" width="57" height="30" as="geometry" />
        </mxCell>
        <mxCell id="HljNFAt1cwT9hR2t2E4F-23" value="" style="edgeStyle=elbowEdgeStyle;elbow=vertical;endArrow=classic;html=1;exitX=1;exitY=0.37;exitDx=0;exitDy=0;exitPerimeter=0;" parent="1" edge="1" source="MKiLzIN1bhL-pMKs-7dY-1">
          <mxGeometry width="50" height="50" relative="1" as="geometry">
            <mxPoint x="280" y="321" as="sourcePoint" />
            <mxPoint x="380" y="341" as="targetPoint" />
          </mxGeometry>
        </mxCell>
        <mxCell id="HljNFAt1cwT9hR2t2E4F-24" value="" style="shape=image;verticalLabelPosition=bottom;labelBackgroundColor=#ffffff;verticalAlign=top;aspect=fixed;imageAspect=0;image=data:image/png,iVBORw0KGgoAAAANSUhEUgAAAFAAAABQCAYAAACOEfKtAAARSklEQVR4Ae2ciVeTd9bHn//mnc5MbVVckFUR2cFdWVwRpCA7CCgICoor2s3aWsdpnc7b1m20tdVa27phgBDWsCRACDuC7Ius3/fc30NCAgk8WfHtyDlXQ09OPPn03u9dfvf3cEnrypDkVo5kNylS3MkqcIjMoxKHyTyrkMqsGmleZDIc8ZYjnVkN0n1qkOFTi6O+ZHU46qvAMT8FMsnW1yNrvZLZ8Q0NIDuxoREnNjYie2MTsjc14+SmZpzaTNaCU5tbcXpLK85saeNtazvObm3HuW0vmeVs60DO9g6c396J8/6duOD/Chf8u/BhAFk3Pgok68HHZEG9+CSoF5/u6JuyflzcOYDPyHYN4hKzIXy+m2wYX+x+jS/2vMZlsr0j+HLvKL4MHsWV4DFm/9g3jqvMJnA1ZBL/DJnEV6EAxwC+ARBPzoB4egoiATQZYpAJEPfODZE7uK4UuiFOeaMgT5Tr8MQ6LU9UeaMwT2xhnqiCeGZrmxbEc1qe+Arn5/XEPnyi5Yn9ak/kvXHaEz/X5YlzQOQSXUthOYja4WwKxLM6IXaqw1kIxE+1PNEQiHxIzwrnkAlwia4lMB9EIZrI66IhnqhPE7U9caYmdgnQRAMh6tBELoEBtC5EIZ6oXxPnCmdKLgISixk9kUtYWwweYqkZPfG/RxO5eAK4thiqUDZfOOuC+OfTRC7epQiWg/hn1kS+TuTiCOACQ/z/q4mj4OJcJLA8RF3h/OeoE7nYNQRwoSDOrYlZfg3I9G1Alm8jsvyacNyvCdkbVG2fdrG9UHUiF7umENaDKFwTM/343jlnRzPIzu9owfmdLax3nglxIetELma1GG8axGO+fLEtFw9juH8CI8OTGB2eZK9rJcMzIPIDCFXbp9sTpwcQ5qwTafjARa8WYxpi4QKG87QmZngpcC6oEWNjk6CfsZFJZvR6fHwSF3a3Isu3SWOKox3O1uyduejVBXhzIPKamOFVhzOBDbznvZ7E+d1NOL+riXnhKP2+s4UB1B6FaUPU7Ynm7525aGcCuFAQdWti+gyAObsakbNTE2AzsnwadcwTeYjW1EQuyjkfuiFaPjunecqR6s5bmnsN0jxqkO5diyOetTgTpFSHMHkdmSqEz+9qRqZPg9ZQdiF6ZxrKcpFO+ZiGKLZaOB/2qGaT7ezttcjeXods/zqc9FewyfYRj1oc86tDTeEQhgcmGDwCSK8piZzY2AAqcfRPtrXD2ZKayEU65UEbouXD+bB7FTseqC4YwFD/OEaGKdNOYKh/AnLxII768V5IRwNnApXMzgY14GxQI45vUCLTVyngeEAbovk1kT8emAJoXYjJrpU4sa0G46N8WI6OTIKMfibGJnE6UDEdzh51SPfkjbKzqsR5M+aJA+AOOIoQ6UQ2H0TzaSIBzNoqZ15HoXkqsBYnA2rVv1Mop7rXqA+qMrynAHrWgSBmeNfj2JQX6juospYmchGOIuiHaBlNTF5boQXwZEANsv1rNADWseRCp33pXvxp36mAepwOUOIMWWADstbPD3H6tE87nM2piVyEwwvMDdH8mpjEAMqmQ/j1BEaHJ/gsOwacDKhDqpscR7zk7MhUJh5k+kgdCRlpZY1kCFkaeqjPE/VBNIsm7ugDF+6QC22IFMrzhbNpHUvyOv7cmZIItWqjBPD1BMuy8sJBlp1VJQ7BHJ/qSDS1kv7buR0NyPBayDOWKYCzIVpOE5PdpUheJ0XCaikSXaRI865CqtfU4b1HNeIdKxG7qgIJjlU4tE7GyhvK0KSVZ3bUM2O9Mf0eSAAVOOpTr87M+jzRUprIfWD/HARQGETjNPGgaxliHUsQaVuCaLtSJLmW4+imKpzeJcfHB+rwZZIS32Q14ea5Vvz4WTse/rMDP19+ybYfjm+dTi6ngxQ4HVivbvGoxEn3VCB7i5JBTF2rwGGXeqR7KHF8vXXqRAZQBTFiVjgL8UT94UznzdH2xYhxLEZOqAx3Pm1B0aMeNMuHWf3HRG+OPzI3y5G5icod/k3khRTq9EMhfGp7PbI2KtBWN4KWmhGU/jaA+5e7cDm2Fce8lUh3VyJ7k741Eu3EYqwmcmH2z0AA9UM0XhOjHYpwek8Vqgr6ZmGanAD6usbQUjuMmqIBlD3thfh+D3LvdOHJ9Vd4+FUHMvxkSPWQQSYemNWRUBJJ86jF2Z1KjAzxUDX/EaX0Nf6R0Iajnsp5OxZTemcuzO4Z5ocoxBO168TY1UU46FaCV60j7HtRx/Hsdge+yqhHTqgcRzdX4pBnBQ6uLUecYxliHcoRa1+OWDsyKeLspUj1rAa1fGneMqhavpPbqeWrY9mZ+ud07zoW1hcPNOHb4+3I+6GPwaZ/dKB7HCe3NLKp9sy2z1yayO23ewpdEE3VxNjVEnba16oYVgMseNCF78824pOoWpwIqEKqjxQHXcsR50QAyxBjX4YYu/Ipk06BrGBJJXol/V2JOLsqJDhUI9lFxiBmb1MgZ48SVxJbcPejDhQ/6lcD7GgYZS0fTbfn3grTDmdD6kRu/6on0AfRVE0MXynGxfgazcjSej3UN462+teoLRlA+bNeFNzvxvP/vMLj7zvx2zedePSvDma//7sTT6534cWdbhT+0gvp834oSofQrhxhNaHWh2r8ci2tDWmuCgZRX3Y2qU4M6AIXSgANgmiYJobZFEB0r5N9rYGeMTy51YGa4gH0dIxiYpzvfzW+s8Ev6TN6O8egKBvCizs9GOgZZ59R9Es/UtbUqncUCaBQiMI0kVZIXoELWfUEhkMUromRDoU45F2K3s5RTExMMg3ct0iMQ17lyPKvxIUwOb44WIdrmQ24kdOMu5+14v6VNjz8+iUefcN74K9fd+DB1Ze4d6kdtz9sw/+eaMHVQ024GNmAszsVyNxUi9gVVfj2eBsmJoD+rnGWoY941DGAljx35kJsH0MIRFM0cb9NAa5lKphnDPaNI31TOQ7YShDrVIJoh2JE2RUjalUxIleVIMq2VMPKEL2qDDGrphNLvEMFEpwqkehchWSXahx2kyFptYy1fyQJ9HPz7EskOdfg2PrpTVkhEPWF81yayIXY/gGhEI3TRAliVksQvkIM6YtePrx+70b4CgkS1pq+FZbmJUeiUzVKH/ezz5YVDCLFhXro2evGpkCcWSfy68ad4PatJIA8xFBbY8JZiCZKEGErRqZ/OZu40De9crgO4csLkbjOhK0w72rEO1TiWnozg0cDifPB9UhZK1ePwmbvbJuvdyaIXPDK36EJUUg4G+WJLhKELsnHnc+a2Jel+jDJvQQxTkVsrc6YrbAU1yqk+8nQ1cq3Kg+udCDBoUrHuvHcGxC6ShyhdSIDaAxEYzQx2qkQUY6FaKgaZBAf33iJMBux0fuJMXZSPLvZxT6L2kPSw1QPukGg67Rv+tyZQtmUcNbURC54xW8ggMZANNgTXQoRtrwAOWFVmJwEswvhMkSsLDRsP9GzEnGOUnwaWQ9qCemzLsUqkehUqXEFQ9dCk+GeOF9i4fYSQD0QLaWJIUvy8cf1duY5DdWDiHaSgFo/YUueFUhyleLgWikaq/ku5/ntLsTaVRh5j8U0TeT2Ln+EuSBaQhMjHcRIWCdBZwvfJ9+91AwqdYRuykauLMW9z9vY/4DutlEc8a0GnbNQ72zMZSAh4TxTE1mxvbUN3B4CqIbIh7Ix4WyIJsauESPUJg+XD/FtHg1MswKkOGBXOCfEZDd+8HByh0ydzb/OaGS989w3qnSFs+maSBC53ct/hbkgCtVEWmaifRyCKPmNTwIVol5Q70zLnvo8kQazNJCtFPHjsdLHvYixK0OKu5BrabogmqKJ/FYYt3vZQ6ggMpBW0kSCGG6bj9QNJRjsG2PheC2rng9lV92L7xErivDN8Qb2XhqPZW2vRrxzOQ55mPNunyGa2ApuFwFc9qsa4nQ4Wz47x6wRY99iEb47p2RQel+NIsWnBFH2hbMW36ntS/UrZz01vfnWh804sLIEKR4alyQFXUvTVeIY7okqTeR22TwED1GXJ1peE6OcCpgnyov5Vkz0UyfzQs3Fd2r5wpdLILr3ioGuKx1ArFMpmyVO3zJdmLt93E6bX7CLTK8nGg9RqCbuX56H7F3lGJta9bgYL2O9swoi1YmquSI7ztxXjWi7YiS5zbyqaypEwz2R22nzADxElSdSUuETizU1MXixCD9d5Xva5pohtrcd48zXh3FritAkH2Le98vXbQhfJjHTBcn5w5k2IOjOs755IrdjKQFUQZzLEy2rieGr8pHiU8RWeWmNN3V9CaIcqPWTIG19KTuFIw89sqGcnfIZ0ztbok7kdiy9DxVEFsrqcLauJkbY5SPJS8Lqu5HXE4hzKcSeRSIEL8oDeSB/uD6BNL8yxDrT1TQTpjizbt7rKnGE1Ylc0BICqII4pYdqiLqys2U0MdwuDym+EvUah+jnDtz8qAE3LjQg98cOFr400T6ysWxqgsPPEs3nibogzqOJGxvBBS35GTzEBzM80bqaeMAhj23KSkU9DJauPyrze9m1NOqb9RXbs58BYUhiMVwTuUAGUAVR5YkLo4kR9nmIcspHTngFbn3cgN+vt+HxjXbcvdSEj6OqEbdGAkosquy8UBA1e2cucPFP0AfRupqYh0jnPBDE4MW52P1uLvYtESFkqQh7Fr1AyNI80Dxx4a6lzdRE/mkkXMDie9AP0bqaSIueUc55SPIqRJK3RH17INmniGVoSix0q2rhIGprIpU3XMD796AbovU1Mcz2BRI9xehuH0F3xwgS3GnsVYju9lF0d4wixbcYNAqzHsT5NZHzf/8eyHRDtI4mfmCXi/0rc7HP5jni3QpYJqaMywC6idni+fjEJJI8JQhbkc8gRjtbyxPnhsj5v/8jAygEoiU0cb/tM7abmOCZj1jXfBzZxtd8VAvGuxcg3k3Mtq/o92MBpUj0kDBPJC98EzSR2/7eDxAO0byaGErwHJ+jStyDwd4xDPSOYXiAPxynriPBowAJbgUYG+XX14YHx9n7aPwlK+pD3NqFhqgAt+29H6AJ0ZqaGLKS3wxrkg+oyz5aoOzpGEFFfg8i7EWIcBCx1z2do+rlSnpzS+0QaBwW5bSwmshtW3QXMyEKCef5pzjCeue9No8R5yGCCmKbcgjp2yUIXvoM4fYvGMAQm1xk+BejrZ4fKDTXDiHFtwjUPxPEhbzvzG0lgEZCNF0TnyLM/il2vv8HYt2mIdZX9CNuXR6DSIklbl0+FFJ+XthcO8hKnNBlInbPmSbbZDxEayWW6baP27roDoyHaA5NnIL43hTEGj6cm2oGEb1GhKg1IjTK+YN4gnfQqxAhS3P5K7oLelWXh8hteZcA3uG9UIcnWkcTdUNUVvajvnLa8xK9xNi39Dkrtqnlm75lav7LQIKen+hTA27Lu//BfBCto4naEBs1Egt5Y4JnAYKXPNO41zffZSDtnW1LPVyI2/zubZgLotk08b0/EO8hgqKC98BEr3zsWfwUBxznu5Zm3D0WU56fyG3++22QmQei+TRxr80TfODwHOGOudi37CkiHOlK2sxraUI2ZS2VWGTscajcJhVAgRCtpYm0+E51YqjtU4vdYxG2izPXPFEGbtPfbmEaIunhm6KJ5r49YAFN9KoGt/FvN6EF8Y3SRP0QDdnFsWSdyADOgigwnOfPzubQRP0Q3wRN5Db89QYIoLEQraOJhkAUsrNtvsTCAOqH+FYT5ytxuPXvXAcB1AvxrSbqfc42bYVxfu9cx2yIt7QTy1tN1AORAfwePETeC/V6okCI/22ayPn95Tv4vSMU4ltNnKmJnC8B1IL4VhMNeaYs5/M/30IN8S8qT9SA+FfNEucW65tn9s5GzxPZZthUrThjP1G1WsffIOD3cbRuVOm6lman/fgCQcU2mynOGMqy58pqP92Yv9c3+27f/wHO9QAcOuqs/gAAAABJRU5ErkJggg==;" parent="1" vertex="1">
          <mxGeometry x="465" y="160" width="58" height="58" as="geometry" />
        </mxCell>
        <mxCell id="HljNFAt1cwT9hR2t2E4F-25" value="Lambda" style="text;html=1;strokeColor=none;fillColor=none;align=center;verticalAlign=middle;whiteSpace=wrap;rounded=0;" parent="1" vertex="1">
          <mxGeometry x="339" y="220" width="57" height="30" as="geometry" />
        </mxCell>
        <mxCell id="HljNFAt1cwT9hR2t2E4F-26" value="" style="shape=image;verticalLabelPosition=bottom;labelBackgroundColor=#ffffff;verticalAlign=top;aspect=fixed;imageAspect=0;image=data:image/png,iVBORw0KGgoAAAANSUhEUgAAAE4AAABOCAYAAACOqiAdAAARlklEQVR4Ae1beVhTZ77+skOEsMS1szzzdHqni3fG2mqvtn1mprPd3q2jbV0qqKyCIODCIqCsIopota612sWqvdNtOm2ndrsdu4xFZd8TshDCFgIJhABhfe9zvpNQauEkwdCZP+B53pyT833v7/f+3u93Tg4nQMae52EWrnuAUwSD/3s3yOgZglm47sHYSQLb5btBRk4TzMJ1D0ZP2I0bPsXDLNzw4DjBwKV7QIZPCjAL1z0YeY5g4OK9jHEizMJ1D1jj7gMZPC7ALFz3YOgoQd+Fe0Bsz/ExCzc8eJag75VZ49xvmmcJrNS4YwLYZuG6B0fsxvU/y8cs3PCgkKD3pXtAZsy0IwT9hbeJw+Sfb1EdxvUdEcHjOCyEtZAP66mFsJ5aZN8y++7gDlgPi9F3iHhe3+3UfIjA8uK9IH2MOA+iv1CE3nw++stOYdTWg9HBXowOWTE6xGxdhRWjg1YMNn+JniMy9B/io++wxKM6p11zAYHl/GKQ3kMSeBLWAgHMB4UY7KwB8zM2TVAyAMvHsbBkE49qvK16DxD0nKPGidB7yIMo4MN8UIDB9hJae/dfgmA5+S+wvHCvy+g5cRd6r6ZS/pCpAeYCb/Qe4HtW53RrzmeMuw/EUiCGJ9F7UABTvhC2NtY408srYMkksOS5gRwC00FvDHVrqXk974WiJ4t4VOe0a84n6D5LjZPAUuA59B4UwpQvwqDdOPOrj8GyjynajRyHJKxRn+ykxg12VMKULwYT21Lg5V4sd/K6Mpcatxik54AEnoQlX4iu/d8YZ7rwGHpyiPs58vjoKgzEsLWVPeXfXovuTIKeg57V63bteQTms4tBuvO94En07BehM08MW1spLbjrlcfQnUWmlcO0h6Dn6l4ax9ZyA105QjDxPanX7Vj7eDCf+VcQ834JPInuPCGM+5hrHGtc58uPwZxJppWjO5cH4+FFGBnoouaZXvsfmDKmF8tjNeYSdP2zG8cU25VOYPnqADVuQPc5OjN5MOcJp7UQHjGPGreY6ThveBLdeWIYc8Wwtdo77qXf2DvOC+b9k8FJ/mw+jEd/gpFBi/3U/5296xgeE88J39PjuXyYTv8cpGufBB5FrhCGbNG4cR2nl8G4i8CYPgnSCLqyCLryuDSI0ZFKYLl+nBrXp/wrDHsIunJFntXtqg/ZBJ2nFoN05orhUWQL0J7FXOPK2EIVV9BX/BL6yl75NsovoO/mGRiP/hTGDB63hr0EhmM/w+jwAP1NpOOFlXQhPKrbVR8yCYwn7wPpzJHCo8iWwLBXiP6ma9Q4Zy+91a+jfTdBV443hw5vGFIIekteouGs1W/CsJugk5Pj4bocPmUI0HniFzNgXI4UxgwxOk/cj553Y9H97jb03ILud6Jh/ngPxsZGMDY6jI4TS9GZzuMwTgpjOg+GE0vpfMo5+SA95tFFd5jDtc0QwHji5yAdmXPgcWT5oCONB0MSmRItCQTW6rdoB1lKXkZbIkFHppRDixRtSQS9Va+znNILaE1yxpmB2tKF6HjuFyCGDCm+f8yhp1776UfpNYu5drUduQ+GVD6HFjvn1EqMYQyjwza0HVnshDMDtaUJYDj2DzOOKcgLLUkE1voPaAd1XzuBll2Ew7gJnLr3WU7RabQ65XjYPMa4o9Q4Hxgy/jFoTyYwnPsDNWFksBetB++EgRHGoYdyXvidnWNFW8FdMKRyc7jiuT2WJoLh6BKQ9r1z8L1ijxTtDJi8e7yhTxagT32VGmG+WoCWHYRbzx5vNCfx0af6jOV8Ueic48kaU4Vof3YJSGu6N74fSNGaKkZzEqGnaGuaBK17pGjZSdD+4hPUhOH+LjTn/ABtKQIOTXbO+f9mOQNmNOf+EK2cHA/WmMJH2xHGuDQffC/Y7QV9qg+s1W/DcvMl6JPEaE2Voi1ViqZEMfqbblAjOj/Kgj6ecGuiHBH6ddcpp+vjHDvHl5vniVqTRWg9vJQxjkk2w0iXoTmBwPBaCC2UeWl94b/oKdaaLkPLdoL2i0F0bMjSBn3GArSmSKbW5eBcWM9yetuhz1jIzfFUjcli1riWVB/MOFK8oUvyQn8L+2sYU6214f+g285H624pWlK8oEuSYqCtihphfDcJTXEELam+U2ujMb0x0FrBct5LsXNmuJ4kEVoL7wdpTvbFjCJFhqZtBK0vr2O7o8+MYZuF3r+1nPw9muIJmlNk0MUStL8WQecMmhrRmBKI5kSvqbXZ47ZfDmM55iboUuVoTpRMzfFErTvFaDm0FESf7IsZRZIU2gQR+uzXo7Y34tDxYQ4ttrf2CrRxPOiTfaBP9II2WQabsYGOGd6IhS6GcGtL9EJjogy2DqWdE+ecc7v17hSjuYAaJ4M+eeagY065s3+khQ1ZjWhMCYAu606MDPXTrtMf+xWa4nnQp/jRog1vbadzBzrqoU30hT5RyqHPznkjjnIYA7VJMugTmducGappp2SmjfODPskXmnghrA3sfZrxo3xoYwiF6e9nabE9le9AE8t0lgz6Xd7Q7p6LQbOejrVeDKOnsD7Zbwoj/FhOylwMmnSU03Y5Ao20U6fi3KahDuN0u/wwU2BM0h//d1rQyEAPtHt/Cl2CBI1xIjTmLcHoiA1jY6NoKnwYjdv40CX6QxNFYHg3jXL6myugTpBCt8Nnao2Jfiznnd0sp6US6u1zoNs5Z2rO7dSc4IWm/AdAGncGYGbgB9VWASw1H9KCOj87CtUWYs/lD1UUgen6BTpmLvkTfa/b6Y/GBG9odv8QQ70ddKzl3Hpooh28KbQmSKFJ+QGGLAbKaT4fRM2ckbripdDtX8YY54+ZgDZGAN3hX9Hr2MhQHzSZ96IxTjKeSxsrQmP+coyODtNnbNr85dDGCum4KpKg48p+aoJVW4SGWAkad/iOcyfTyyxKxwe5lNOnvQFVrJdTzmRxnB6L92aN02z3g6eh3S6DcguBuZR93tb55VkoIwi0O2TjueicSAJz8Z9osV1FF6CMtM/ZJoEq7U4M93fTsaaTT9CO1Ozg0MpwUn+C4X4zyzm9inY4J2c6tW/zQmPeAyCeNo2Jp94qgGb/QxgbHcHoyCA0OUug3ioaN82RUx0tgPbgw/Q6Nzo8CHX2Eqhj2HnKcALjp0epCZb6z6CIEkKz3fc7MRyxmC3D6fjkCMtRXoUiWghNAjdnIt+l/W1e0M6McTIoIghMRRdpAV1FF+n7SUUlyKCI5KG77B06t/OLs1CEE2oOY6Bq770YGeyjY7pn/wBVFI/TOHWMGKo9d2PEZqWcxqOPO+VMqoujE9UO49QJMngSzAeCKpv5xByk3ymo9z8EVZRgyhyqLTxoD/0aY2Nj1CRVxmKoYkR0PmNi5xcvUBO6K99HfQSPdhCXXkUYQefnZyinp+oKXRh1vO+U+bliTTamipVAm/sAiCouAJ6COj4A9aEExs+fp8JNJW+hPpwHdZz/lDmYsfowHsylbNcZrz7/DSdKDFXWUnYRMAbNgV+iIVI4ZSxaR5QEqswlGBm20UfsmoO/cs5xx4OtUmhyHgRp2OYPT0G5RQJlGnt6MX+JqT7wayjDBU7i+6E2jA9z+XvUbMOnx1EXyhvn1IYQdBVdYhfi5utg3jvTy8zpvPYqyyl+E7WhzjnOYjrGldHeUGcvY4wLhGcgR+1mAsMnx6jg7sorqA0VoiE2gCO+HIpwIdQFv2dvW2xWKNMWQxklRcM2OYUyQgzVvkfoaT86MoSG7IegjJTYxyfTLociQgJV7srxrxIbclbQPMoYPzBooGAahuEzeSaLM/kxZbQP1NnLQZSxgfAItkhRn3TX+C2EpvA/UB8qcBI7ADUhfJjL/kLNNv7tedRsIrdw2Dkm+6nc+dXLk8z5bg01ITyYit+mcbuuXUJNqAiKmEAoYhnIoYiWQbFFCuU2+S35vhtroj+KqDlQZS3znHG1mwja3sunQnvqr6ImTIyGmABOUYpwMRpyH7Xfjtig3HM/FJFe3+HUhwmhPvBb2pWjQwNQpC+ZdN63CgwTQZX/G6qHeRkwaGAzqGAzqGFrV2GgqQKaQ4/T7pzIc7aviPJhjauPDsRtI2IOahN+jEGLkQpVH12N2k181G+Vc8auCuah8+vLlGP86lVUBxMoJtGjiA5A1WYRuqs+pnMNn55CdRCBYiuX9gBUbxbBdP0NypnspeX9AprTnfrrIuagIWMZiDukyefKaRHNb+yh2izq66gK9UZ9lD+naXWhEtSnPwjmxpe5UVZmrkRdiHhKTu0mAVSFji9oLKhLvAd14d5TzqdaI2Woj5kPdfYjUOc+CnXOw1CkLYWp8iOqteWd3GkZp8xYDlIXFYDbQoQPqmMWwmZuoWI0JzagJpigLpo7btUGgo6/naOcrpt/RmUwD/UcWuq3+KFqswQWxVeU0/bXQjAxOPNEB6Iu0he1IWI7RKhYS9Dxd/ZTuvnPuagKIm7VXxsuhZLpuLooOaaNaDkV33QxkRZjbapAVZgMdVv8OWPWhnqjNuk+jAxa6XVLmfdb1GwSc3LqouaiJlgA9TH7I/jeLtTE34m6cJ9beIGoi2IwWV2BqNwogvFr9u9PWON4U8ydjC9HbbgPFHuXg9RGzsV0URPmj8rI+Rjo0LDd9nwkKp/hozZyHkfMeahYR9D2Aft7qKniY5QHiVEbIefg2DWGB6Jisy96Nez/UDS/mYOK9Twn+SbWJ0f5BvG4cfq399n1TpzDvV8TKkN9+kMg1eHzMR3URMxHxToBtOdjqWn9rQpUhMpRHRrIHW+TDFVxP8NwH/sUQ5n/BCqfEaM6wrkONqcQ6pOhNKfN3IbKqB+hJsSfO+d4jfNQ9owEHdfYjmt6Kw/l64Qucll9VZv9UJ9GjZuH6vBpIDQA5SGBsDbX0SIaX4xH+Vq+k1jzUbaGB/3beZTTXfclyjZ4ozpM7oQ3QZ89b18z+79iuou7Ub7GWV4Hfy5K14vRcY19lEWNWytwPXf4PDDG1d2OcUy3OVZ+wNiIivAFqKYr7xA5yXazHyqif4zBnnZqXMORtahYz6z4JHOnOhbBnOp8aM+xnc7kLg9f6Dw3jccYx3Qce4syPeNkqEv7N5CqsPlwG6FylG30Q6+W/YK58dUUlNFV54gVznQbH7pL6dQ0i6YEpcEyVIfK3cpfzegNCUB52AL0G9hrq/Z8AsrXMJ3DkZ/WOQ+l672+daqWrRG6lb9ykx9qU1eAVIbMg1sIZQwQQXn4GWpAX4sCN9d5o3QVQenTgqmxiqAkOAADRvbbKNVzoSh9WojK0Pnu5Wf0hs5HyVN8aF9JtmuoR/F6KUpXO9HwNB9FjxO0XWUfAOjezEPpUwK38lcE+6EmZQVIxeaFcAsb56EkaC56FEVUtLWpBq3vH4fh0xftOA/Dp99F+5XT6Cplbzyt+hqUBMlRsXGee7knaC0PkqM07Eewmdj7x86b76P9wzOT5p6op+3KafS1sV966946iJInxW5pKA8KRHXySveNK3/GD5U7l1HTpvuiOhODkidFqNi8yC3R317gRSheLULjJfZ/vaajpfFSxvSMS5qGcRWbFqBs0wKoj4VA/1oWmi5loulShhMwczKhv5wF3bkdKA9ZdFvdNm7gxrkoD70DuvM7ob+cbdfgXA/V8WIiKqPuQnnwXLcWj3YcY1zZxgWYDoqf8kLxKqH7WC1GWfA8lG1aOK2839LKxAiaSzvPbS2rRSgNkruto3R9AKoSV4KUBs/HLFz3oGSdPyp3rZg1zt2m+ca4oAUonYXLHpSsDUDlrodBSjYswixc96B4jRwVOx4Bubl+IWbhugc3ngpA+Y6HQW6uuwOzcN2DG0/ORXnCoyA31i7CLFz34PrqQJQlPAJyfc0izMJ1D4pWBaIknhp3B66vmYWrHhStkqM0/lGQoqcXYRaue/D1HwNREvcICLMzC9c9uPafc1AcvRykOPaXuBnDgtl34CZz3P6e7jNz7MccW8fciVsHhznGNW+y8YncW2PeGmvi3Iljjv1bt454t/ImHndwHMcmbh28G1tWoCJrA/4fSdmzAu5GSCoAAAAASUVORK5CYII=;" parent="1" vertex="1">
          <mxGeometry x="347" y="160" width="60" height="60" as="geometry" />
        </mxCell>
        <mxCell id="HljNFAt1cwT9hR2t2E4F-27" value="AWS Glue" style="text;html=1;strokeColor=none;fillColor=none;align=center;verticalAlign=middle;whiteSpace=wrap;rounded=0;" parent="1" vertex="1">
          <mxGeometry x="459" y="220" width="70" height="30" as="geometry" />
        </mxCell>
        <mxCell id="HljNFAt1cwT9hR2t2E4F-28" value="" style="shape=image;verticalLabelPosition=bottom;labelBackgroundColor=#ffffff;verticalAlign=top;aspect=fixed;imageAspect=0;image=data:image/png,iVBORw0KGgoAAAANSUhEUgAAAEMAAABOCAYAAAB7VKutAAAezUlEQVR4Aa2c93dc5ZnH5+/Ysz9syybgpjK9j0ZdGvVmS3LDxg3bWWCTBeOw2eyeZUsKEEw3BEJIgGCwwXYItmWr9zLqXVYvlqxiy7LKd8/zvve9c+/MHVnkLOe8vjIHl/no+z7P9ykX3a/PD+PX74/gtfdH5OdrvxnFuQ/4ee2DUbz2wRhe+3AM59iZwOsf8nPuwwmc+2gCr380idd/R2cKr/9uGm9Ih3398Qze/P0dvCGdN38/izc/CZy3PpnFW5/O4c1P5/DWZ3elM4+3/ziPtz+Tnn+cxzufL+CdzxfZefvCIt7+YgnvsLMoPenn9/Dul/fw7sX77Jy/uIx3Ly3jnUvLePcrOg/YOf/1A5z/egXnLwfOe5dXoIuKa0ZUfAuik/zy0ae0wpDSBqOvA9Fp6qNP74Ixo086vTBk9MCQ2QNTVj9MOQMw5QzBlHMb5lxxhmHNH4E1fxTWghFYdo/CtnsMtqIJ+djp6+JJWPdNwnZgGrb907Dvn4HjwAwcB+/AdWgWrkNzcD4xD9ehu3AdWoT7yXtwH70P95F7cB9Z4l8fXYbn2DK8J1YC56mHiDnJT+zpNYjj/eE6Yp/eQNwzkI/Ok9UKOu6cVnhy2+HJ4ycmvwPegk54d3fBs0d9vIU9iC3qR2zRAHt6i/rgLe5D3N5BxO2nM8xO/IERiJP4xBjoJNA5NI6kwxNIOjIpn+SjU0ikc2IaSU/NIOnEDJKeuoPkp+4g5dQsUk/PIfX0XaSemkfq6Xn4Ti/B90/34Hv6PnxP03OJfZ32zDLoZPzzSuD86CHSf8xP5nNroJNB5/l1ZL2wgayzYEfnzuQwOJA2GQZBCQckprAL3qJeCQhB6QMBiS3uR9y+AcTtH9ocyCEBJACDwGgBIRibAyEYAgiHQzDSn30gw8gkMBKQjH9ZZTBkIGcIiAzDD3emn6uDKSQUSGxBV4hCYgq7OQCmEAlIsQBC6ggFknBwlKlDpZAnQxWSoFIIh5H81KxCIfNBCnk0EKYULSDPSwo5C+gIBDtZCiC5ASCkDjoEJCboyhAQUgW/MlpAbodcl4QDIwEgQiFPhiok4dgUvy7sygggd5ByWroydF3YlVmA74fiuigVwq+LUiEEJD0ckDPr0LkyWjgMSR0ihgTHDwZkdzggBEIcHj9ii+m6kEI0gCgVcmgMiRRDFPFDXJmE4wREiiHSdSGF8Pgxh9RTCyyO+E4vwHdaCYTHD9/TYeKHJpB16BxpTTIMoRIGJJsCahs/UlD1kkK+A5C4vQJIaEBVXRkBRKGQZCmGcCAUTCmoCoUEAWEKWQxSCAHRjiEiflBQFTGEAiqD4UxvVgGR1UFACITIMpRhJCAe5ZUp7EKMnGHEtSGF9LMMEx8mwwggIsMkHgqNH0lHp5BwXKgjkGGSTwYBOX0XvtNKIATiu2UYGUZ4IKSOABCRYUghSiA8w4iUy6+Mt6gfMcX9iN1EIcEpNzE45dL1ISAi5coKmUWKAHJKpFwCsqRQyHcDonP4mkBXhWAo44fIMEwlOdJ1kRQigAR7kEDKJf8hFNLPFbLv/9OD3EHSiVmoMowMRMuDLG7Bg6xC5/A1YutA1ArRTrldiA3xIARkQOVBhBkTT1khcoYJvTJqU3YHSU8JIGTIKKAKhWwOJDjDiBiic6Q2QQaSvkWFKFyqNpBgD9IP9+5+2PP6YM7phzF7AMbsQZhzh2DNG4I1n85tZtsteSMwk33fPQbPvgnEHwqkXWbKjildqgAyh5RT4YAID0Lxg074lKtzpDQwZTjpumzlyrAM82jbTh7Emd8LY0YvTJk9SNjbi33/PIQXfj6G1347jT98NYcrtxZwo2oRN2vpuYQ/lS7hkyt38cbHs3jx1WkcPjsB37FxOIrHYSsch/cgd6nkQQK2XQGEWXZSCHmQu0jVTLnhgDwEh5EqXRUJhoghItWKp5xlWEDlxoziB/MgBZ3clBV2wZLdiWhfOzKO9OA/z43jesU8xqdW8Jf8M3XnIW7V3cPP35tF/jMTDIrnAGWYKSQKD3JCAnJSUge7MgogKlNG8WMJaRoK0TmS68HUwYAE4ocWEBkG8yDq+EEpNya/C1Ep7cg/2YMLf5rB0r1V1ee/u7CK9p57DM4nl2dx/rMZnPtoGq9+OIVzH83g/Gez+OTyHK5XLqKtZxlzC+pff395DV/fXMCBM5OwFo4j7qjSpfL4kRwChOKHMuXStSF1UKZRmzKdXcCg65LaCCeLISLDNIXPMLIp41fGldsBY6ofr5wfxYOVNRlCS8cSXv/tBI6fHYbvUD+cefza6DN6YcjsgzGnj8UPYzYv/an8t+Tdhrt4GBnHR3HipxN44+M5NHXel3/Ph6trePMPs3DsHUfsUYUHkTJMCBBND0IKuccqXFHl6mxJdVACcTIgaoWETbnZAQ+iT2nBRxfG5L/wt2WzOPzjPliyOhDla4cluxvugn54CwMehJsybZcat38EsfvG4CwchTlvBM6iERz5yQS+KV+U/4xPr84xILIpo+sip1wRUKUYoln2K1PuA+gcEowQIFtNudltMCb78ezPethfcvnBGn7yv4OITm6DMaMDbuFU5bKf90B42a9MuY/ogxwcg6NoDOb8UTz/q0ksSlfwhV9NwLFvMuBSRfx4ag4p8pUJTrkiw9BVCQDRORJr4UyqZ+pQAfE1YisZhvoh+sQmlFTOMBj//vIAtnlbEJMf2hjiZb+yD8INGVMIM2W87Bfeg57CsivLfn3OGM6+MsH+vNL6RTiKx0Blf8IJRQxhhR2V/UIh4YBQ/CAgy9DZE2rgTKyDIwwQlm43SbkEw5LchLYuLt+0Ay0wp7Vt0hgSHkQoRAAhUxbog2wGxLN/AilHh7G+sYbO/iXEHBhG0pHpkE4ZbwzNIlUFhFKuZMpYU0gE1CXobPE1cCTUbgpkM4W4MlthTW5Cc+s8+059+NkotnubYM9qZ0UdtQ4f2Qcp5EBY2c86Zbzsp/ahgEIKSTo0xuJIVNZtvPUJV2JL9yKDkfjkFOuUhXoQqVOm8iDUOgwt+xkMuxJIsvrKOFMa4NS4MsJ7uDL8sCQ3okmCQUQ+/nICntxWRCb4ORRqDAX1UbUbQwMgIPH7Kaiq+yCeohGYcoYRd2AYH3xxh4GnH5q7FmQYch+ETBkVdFJRl0RXRhR1m3gQHYEQRyiEYoc4woMwIJR200Ta5WU/g5HEYWxsbACgA4yMLeMXbw0j/WAnjCmt0Ce3wZTRAVtuJ5wFXXDvobKfOmWiKcQzjYcq3cIBuAsHYMsfAqVcS94QMo8P4+fvTmNo9IEEYh1r6xto6VpEzP5hkDLkBhHFDwZEpF1JHZpAAh5EBUOpEBUM4UGEQqQql1e6fliSGtHauYDV1XX85L860doZSH9klMpq7uKV82M4eXYAmUd74C3shC2nA6bMDhgzOpldN2X1wJLdA0deL2L39iHnxCBO/nQUr/xmBqW1i1i6H/AunQPLOPPLISzdX0F73xI8+26rYYiynzplLLuE64MoOu0/vAdNGEwhW0y5zvQWmCUYpIqkgiaYkprxs18MorF1QfouBh4rD9cwNvkAbV1LqG5cQEnVHK5VzKGkah5VTYto7bqH0ckVPFhZD/wi6St/93289OYUXIUUS/qxuvYQHX1LcBcPIeFwoKBj1+XIJAuorFPGxg4BIHKGEVdGCqg6a2yVfE3EdZEVopVhyJQxD9IoXZlmmJIa4O+kD76B3CdaYE72IzquGZbUZuw91Y1fvT2KG+VzGB57gNW10A8Z8qkBdgVGJlaYKn794RSeeG4Ezj1DbDjlKhxF1okBPFx9iI7eJbiLBhH/xAQSgzvtR/gshpkyFRBFp11R9jMYtrjqECCkDna0gIjr4muC3dcMY0Id/B0cRs4TLbCktPDRA6Vdnx9RCX7ok/3w5LUh50g3jj3fjxf+5zZeOjeKl8+P47UPxvHK+xP4rzfH8ZNfjOGpF0dQcGqAXRdzdi8MWX1w7B5E7D5SxDBiikeRebyfw6BrQjAOjiPh8DiSFH1UrhBpOCVah/JwKtSD6CwxFSB1hAPiTKwN8SAiw5AHsac2wZBQC38HpdYNEAxrCu+4s8KOhlQ5VNS1wZndBltmG/MhJl879L4ORPramV0ny65P5/HDmt0PZ34/Yvb0wZbbC1bHZPXCVsBdqqd4JARGAsGgaZ0WEJrDyGU/WXZFY1n2IPPQmQlGTOUjgGxiyghGPCkjFIZm65AaQ1LZH96D9COueADmrF4c/NEgPr18Bxe+mcOpnw3DmjcAT9EoMo71MWW09y7CVTgAgsFcKnXKNgMip1wRQwIKYcpg6vBKQBSpVsSQzVIudcqM8QFlZB1oYtdE+BAVkKDGMuuDBI8eqIYp7IYluxcn/3VQVQGT8l745TD0WUMqGM49/Yg/wGe5AkhwY1nbg8yw0aXwIDpSBcFQAhEQlE8BhPofyhrGkdIIY1wtWiVlEAxzksYsRsx0g2YxormsHG67dlOXrAO9Q0sstn5yeQYfXphiX0/eWUZMcR98T/YGlLGnH3H7R9V1DM1iwnXag0wZm+WenAWPGd8JiNqQ2ZMbYIitRWs7vyaZ+xthSgrtg7hp2k9A5LI/0CmTZzGSS7XmdGH36S724dt7FhGZ0oHH4zpxs5o7zwM/HkT8ge4QGGTdRWNZVohGhuGzmNCiTmdyl/GYoQQSWwnrJhnGqfAgDIa3Bn4GA8jc1whTYmP40QMDIq0/qEYPHfJwm2AUnOxkMLoHlqBP68S2+E6U1s6xf7f/R2TZCcYqKGY49/QxZYg6Rg1kXCPlSrMYkWEk264zuUth9pRvHYioY6SUa0uqh0GGsYEsgpHAPYgzPVQhcoZhCpGaQ0HrD66CLthz2tDVx53sN7dmcekaV8X41DLcu7uReqhLVgbBiN0X2AVRKiSQYYJGD0oPwmDMQGdylcLsLoMlCIj1ESnXkcAzDMHQe6slZXAYZoKxSdkvAxHDKcXogTIMDaeMmR04dqYX8wsPmRroh42Ndfz4pSHo03qR/mQXVpgyFuDc3cNgBFe5QiEBIEEuNWhBhsEwucpUQCzSldlKyrUn1kMfUyXDyNzbwJQRXPa7M1tARZ3d1wJnOl9/YDEkDBBPQTfMma3ov30P6xvrrMF85MwgS7euggGkP9kpK8NR0IXYfaLsDygkpDEUNuVOs9GDBKMUwUDkLCNSbrgYEl8Hg0cJox6mOHXZTwWdIaGRNYGS97TCQa41sRkxbIXKDzcDop7FWNI7cOx53kqsa5nDtrgWmLJoWtcPV8EgUwbZ8fbeBdjzuuBlK1RS2R/UB5EVIjyI1vrDsWnojM5boLhB14WCKbsykhGTFSIBUabawNe1MLgrA8ooJhj1YI1lXyNcviZExdaj4IgfNY13Mb+wyrpix37UCX1CEwPCPIliOEXplnohH38xzq7IS68PMZdKs1wq+7kyeDZp61mEPa8TMcWDiNXog1D8UClEI+VyDzINnd5xE0bXLQ5DAYTFDEWGsYQBYourhcFVAX/7XfYXzyiqgzG2Tp7FWBIbkZDbgMnpQKuf/sP7yw9ZUWdN8bOUy1JvXhts6W0MhDO7BRNTy3j4cB2ZR6gPwpfsCIYjv0dSxiraehZgz+1ATNEAm+dyIFvYBwnyIAREZ7TfxKOBcGNm9YbWMLa4GuiDYBgEjJQG7HTW4pev9zFQpVUz8BU14dOL/Dv+wSfD+Ft9LSzJfrgzWmFKbkHGwTZcuDKDnoF77NdcK7sDWsX07OmWtw4d+d3wHW5nqZWU4cjtZCMIGm7HbmHjkHuQ8RBTpjPZb4KAGBw3A+oQCvGQB+G1i9KlKos6BsNZLisjs5ArQ7jUHY5qXLzCP/yTT/vx1xE1SMirx+raGsYnH7C+x+6jHawH4slsxNAId52MBLX12ufhzm2FJz8Ag2KE71AbyyZcGWThqWMmFmS0ZzHKlCuAKKtcncFWAgbEcRMGpxoIxY9wHkQAETBa2uiabCBzTw1MXj6YIiA77NV473eD7LO9/cEQ/k5fiRf+s1t8VvnZ2rmEplZ+1Wqa7uLZf+tFC2sLAP/+cj+MKW2yKSMYqU8EwxDddg6EL8iEbhwqgQRSLvcgOpO1BEYJiIEUogKiSLkUMxQxRJT9AoZfCcMTKPv1MXUoPNKEe/f53LS9ax68Vwr8/otRlFfPBc1kN1B4vAV/Hd2AJ55pZ7C+uDqJ6KQWeUmXw2iVlDEPW247vIWD0pIu30ll+yBsYygUiCqgKsp+ncl6AyZbCYRC6LoYQjJMuYYp41WuNbYGeromDAaQsbsGRg/NYjgQR0o9HjNX4LOLw7IKKCi+8vYgfmCrRlRsA1IK/Th1plt2nE+/2IW/2lWLMy/1sl/zh4vjiEqkwRTfWnbmkjICMKw5fsSwa0LqoCOpY5MlXRUQlnInoDNKMEgdRju/MgSEpVyKHSJ+KFyqSLns6a1CdDAMd7U8i7El1sMUX4Wu3gVsUAn+H11IK/IjMqYOdsml0hDqe+Y6nH2J+4o7cyv4/OsJLCxyNZ062w1jKl+2IyCunC74DkrXpHse1mw/C7BsS5nBUAIRG0Pq0UNoyh2HTm+5xpRB6tgSkBhexyiBRNlLVcowSDAo7X4/uhKHTzez73B98ywet1bAGKdYkKHRQzqNH5phTmrApW8mZQXRF7/9bBTGlGZ545BgOLM7kH6wTcom87Bk++He0808CC3VcXUEAQnjQYQho6fOYL4Gg+V6CBCWcp0aHiQow5g9lYiy3UJLG1WUG8jYXQ2Th9JtFaxxVSg63IySMv4BX3ypEzsdNdyDsI0hdQ1jTaXmciOefrEPL78zgpPP98KU2AxnhthJ5S7Vkd0B334/h9EtwdhNMMQsRlyXABDqnMUxIOE9iM5ougaD+XoIEJFy9QyIdF2koo5nGJ5yCUak9RZaWCbgMHZZqpCYVY0mPy+56TtMOxU5++sR5ZEMmTSLCZ7lkkIMCc2I9FJvlQZV0lsPZN2lThmNLgMwFrgydvPUS6aM76RqANlLTaDw036dyXQNDIjlOgxS/BBXhoCEZhhe5QogFgmGyCZp+dXYZixDaQVXw/TMMqZn+BTs0tUxRDirYAtakCEgrLBTDKdC2oaZrXBLG0P2zHak7muRlLEAW5aflfWiW8YVInZSCUo/6PoE9kFCM0z8gVEwGAEg1yACqgrIJh6EzBhXBr8mCRkVSM2tZldmaHgRruRKxGdUYXJ6Gaura0jNq2O1izBlYnwZrBDNBRla+s9uhRrGPGyZLYgpCJgygsIUUkRAhEKkJRm6LmFSrgwjAOT6JkAUNYxU9pvd5Yi03kRLK78SsanlKDpUz4LgN9fG8DfbSvD3O2+huo5PzfccrIeBMklwL1WsTz2yD+KHLaMNqXuFMuZhzWhm+2ShS7q0/kD7IAKIeC9GZBi1QnRG47cgEOKIgCoUwjKMMGXBHsRVxkr/CEuJDCMxswIxyeVYWVnF3fkVHDzeiKOnm3D//iruLjyA11cFK9UuGsMptlNG0zrFcFtLIXZfK1KKm+UAak1vgievE7Eab06RQtQpV6w/iBeFAn0QncHwZ4QDQldFXBfZpQZ5EKOrDBHmGxKMDaTlVeJ7O0tw/oN+VYqkn7z6Zg92WipkD6IJRDGto5SrtcbtSGtFSmGTDMOS3gR3nljB3OxFIaVC+tn6A39zigPR6fXfgIAIZYinUIgKiJ2MmahyeYYxOkuxSwEjPa8SEZZyRDtK8fZ7gxifWMbYxDLOvdMPvZOmd3wFQh49SAphsUMjw2gBsfv8SJVgtFJqJRi5/DUy8iHBr4HwDCPWHxRAyKHSkVKuDOO7AmEu1VUKBsN0HS0sjW4gPa8CensFjO4KbDeUwhlfCWdiNXZZAiBEY0gAkeNHcoPKg4gMI4CIDGPz+ZFS2MiV0TUPC70zk9vBXgchGOGBKDMMQVEWdYPQ6fV/AqmDTvB1IZVoKUR4EG7bS7FLAcOXU45oe8ClUuPH5NYePRAUAqJ5XYK2lum60CEgKhidd2FObZBhyC8a5ncyhahfA+EulS/ICIVQDOEZRgVDC4jwICKg0rVRFnV6+y0Go7WdZ5OkjDJE2ZR9EGoMVYIaQ+HWH5y0UxYmoGqlXLomiQUNTBkddE1SGuDKCrxXJwMp0AbiDUm5pJAB6PRRAWWI+BGsEA5E7UEEEL39JrZFf4u6hmkWMPceqsY/7iqBhdUwojHEy3+CERZImI1DyjDyWw9pNIfh7jT/cAtrBTT677KhFTlV9m6uNHZQAtFMuYXKlEumbAC6qIir0Ec/GoiBroxF7UEEkH/c8S1ePscnYB1dc/CmlOJ7O2/A6CqHTe6DVEL0UUVjSMQO+bporD9wU8YdKq0/7HDVw5XegLrGWQb/9feHEOltZPsgNI9hnXYCQgFVyjBiFiMcqjBlag/STzCuICqSgPC4IeKHVso1mq9BHwSEUm60uQQm5w109/BO1cTUfTz3oh9RthJ8P7IEUdZyFjeUw+1wQFQ7qSk0122AMbYeOxx10MfW4Z/OdmHgNu+P9g0uwZvdBHua8t1cP9zUaZeAhFWIVNQpgXAYEVcQHQaISLXiqR1QS7Aj+jq8yTfR1BJYS+zqmccvXu1BTlEtjM4yPB59C49F3cJ2YxkirJR+K0HlvtFdDYO7CnpnFaIdVYi0V2OHrRrbbVVswp+9rxkv/WpA3jUlSbR2ziO1qInNXzxUm0jv5zJ10M9VQLQzTEAh9AoZuyZXQOqIjJSASJlFqRABQjwNltCy3+QgIDcQZb2Ol1/rxsydZSZj8UNP7wIufj2GX77ai2efb8OBY83I29eAzD0NSC+oR2ZhA/L3N+LAcT+ePdOBn/+6H59/NY72rgU2VhS/z9zdFbzx/m3YUuuhj29kMUSAoCcbXdJ1oSPiB/Mg3IeE9yAKGOy6aCiErkuwB+FlvwYQ+01EW0rwDzu+hTuxFP/x352orp3BiuKVC/GhxHN9fZ2V9+vrfH9U/Hvlk1Yq65vu4n9eHUBiXiN2OGvZVrJzsyqXYLBXUQNXhvyHWH8I3VrukWIGxQ3F0boymhlGozEkOu1Ur3w/4jp2GG8gObMSzzzXgnfeG8C1kkm0d85jcmoZi4urePhwDWtra+y5tLSKqekH6OxexI3SGbz322E899MuZBY1ITqmBjvsNTDH1/P3YqigUxR1woMIlcgKYUCk0aXkUgUQZUClr3URO79WgRBQoqOuymZs85SrzjByDcNmMbeYQ42w3MTjUSX4QcQNbDeUwOAogyu+EvFp1fDl1iC9oAZp+XVIyqqDJ6UGJk8VdlkrsN1UgQhbFRs90LQ/uOwPHm6HBUKzXI2AGvxuLoOhDeQqD6qKGKKZYTRSrgxEVLmsqUy1TBmb55rc5TC6KmBwVCDKXs6O3knBtBJmb7Vcv4jUS+sPzJRtAYhWlctTrvrtbXZlgqpc3a4dX4FghAWyZVMWpBBFp101eghaf+CzmIAp2yzlarpURZdMvFenBYQFVFWGkQKqAohu5/ZLEEAid10OvTKUcjWAiMwinuRBlKaM1CFGDzTLZUDE6EEAkTrtYjhllYbb4YC4JJfK2oZy67CRxRAt2y7ih8gybvrfYoQBQgFVhvH/AUR4EFHHMCAMilT2OwONZc31B08FtIDQOzGa78WkSG9esk671EclpUhFnZZCWGBVAFFWubqI7V8xZRCMTYEw2x7qUoUy6KlMuUoggSqX2oaK1iHtk7EFO2kxl40vqajj0zoRM+hJMIRtdyXWw5HUEBJQSR3hyn6mDoUPEZ12FlilnTJd5DZ+TQSM8ECuatr2raRcuUEkNYbYlE5cGWlBJjDtD1/lKoFoxo9UvjG0lZTrkTrtDIpkznQRj19EZJA6BBCRZpXPv9SDCCBslutQqEOML1XDKbEPsrlCBBCt0cNfAoTD+E5Atp5yWVGnmNYxINIuiBxQpRWq0PUHAYQmc4G3HkT8sMfXInwfJBA/NsswLH7QCibzIG3Q7XrsSzB1aADZPOU+2pRR2U+zXOX4MgRI8D4ZW8EUfRCxxq3eGAoAqYFTeJCQ0YO6D0JBVTOg0sRO2jjU7XrsAmQg2y6FXJmwQCKvaKbc4BjCgag9iBKIatovZjEhO6nSkr+GQkQfVbt1KFl2hW3fDIhu1w++YDB2PXYREY9dQuS2rxC5/Wvs2qE4Oy8jgnmQq6BmkPJER1GG+bN8DIZvYTSKOcx1mEzXoQZyEyYbP7zTfgsGlnLLYGRBlRZkyqWNoSpYYqpglrMMKYSySi07QiEOujJyhqEsQ43lRn6k4RRff2hm037aR2WdMVb20yy3jS3Z6XY99hkiHqfzR0Rs+xyR2z5H1PYLiNx+ARE7vkDkTjpfImrXl4iKvIioyEuIjrwEfdRX8jHoL8NgoHMFRuNVdkymb2AyB47R/A2M1j/DbLsGs106juswO6/D5LwOs6sEFjrum7B4+LF6b8HmLYXVW8qettgy2OLK4YivgDOhkh17QiXoOBKr4EyqhiO5Go6UGjhTa6VTD5evHq406pDxLhl1yjyZTfBk0eol7aPy83+Q2vMYEzsgXAAAAABJRU5ErkJggg==;" parent="1" vertex="1">
          <mxGeometry x="720" y="162" width="49.82" height="58" as="geometry" />
        </mxCell>
        <mxCell id="HljNFAt1cwT9hR2t2E4F-29" value="" style="shape=image;verticalLabelPosition=bottom;labelBackgroundColor=#ffffff;verticalAlign=top;aspect=fixed;imageAspect=0;image=data:image/png,iVBORw0KGgoAAAANSUhEUgAAAE0AAABNCAYAAADjCemwAAANlElEQVR4Ae2ciVfTVxbH+09MyxKSsNhtANHWTlvbUWQRZZN9B62dsSogsoW1IipLURRlR9F22traM3XqUkQlCGjBrSqo2FatUOva3XbOaXH8zrnv93sQskBCErARznnnSUhi+HDfu/d+733vMUx+GUzgMYNfYcQLunpvYpvyKhqVV7Fd+bXRo7HlKt5u78f5b3814lMZ/tJxgaY824/Ykv2wj2/E1Kx2uOUeg1vOUaPH1OwOzFh1HCE151G492uc7vvFcAJjeIVZoSnP9CGmeD/sE7bDYdHbkMc1wDllP1zSmuGSesDo4byyCdMyDyK46iwit19BeMMlFOy5ilPXfh4DCv1fYhZorWf7VWC9A3lsHeQxNWw2B7SgLZ8jpOoMQqrOIaLxsgjPfJZnUmhkWbGln8I+oREOizisWshjaJgfWnDlGdBg8LZdRnj9JRTuvWZyyzMJNLKs2BKCRctQHdb4QxsGT7Q8gve5ifY8o6CxZTgqrImDpg4vrOESVu/92mh4Y4LWeeEbxJY2wWFEy+Kw+Dx+y5PDUp+HLdt9fejuH5vDMBha68nzsI/cAMfF74sbPIcy2jzx0DhEghf99jXMLTuFjgu39Xeb4jMNgvbFtZt4NjQbsvD1kMc2iBv8aLD4zx8eaAQvrPosPMs+x8t5R3D55j2DwOkN7e6Pv+CV14tgOz8N0uAiC4B2DnPWHYWLoh3+Jcfww73f9QanF7Q/Bu4jNLMKEj8FbLwTLQjaMTyb8imm5X6GxdUnMXD/gV7g9IKWXPYuJP7ZsJm7wiKhUXYyLa8LOe93mwba+neaIPHPgo1PinHQYmshj9sKl7SDcM1shWtGi9HDJf0wnss5grDa8wir6WaBLd/sR5vDqml5CpbGUrq0ZkzL7UTVga9GBTeipe06dBwS3wzY+KwUgBlqabH1wt4XWw9ZVCWkYWVwjKmAY+wWOMZuNn7EbMaUuC2YlbsbARu7GLzw+osIrelh+ehI4DSgpR6Aa/ohuGW1Y8+p6yOC0wnts3NfwT5QAdt5aUPA9IFGoOIaWDgii9oCaWgJJP55sPFJhY13Eqw9l5l0WHksxRMeyyD1y4Rzwga8qtgF37IOBi68vpeBDKk6q2GF2qCRxblmKvF8ThtOXP5eJzit0K5cvwOXiDzYzk8fDkwrtDrIuUXF1EEWWQG74HWQ+OUIS9o7ke2DNt7Jmu9F72eiYeWViMfnLMXjc96AZF4qno4pwUsr34VPsRIEjSyQljHFaGSBuqC5pDZhqqINs1a14dqd37SC0wptZ3OXsI9p+4WY9yyGPK5RDDtqIIsoh13QGtj6KgQIXgQqCTZzzQtKF3BrryQ8QQDd32CfZ0r4asxI3AavwmYEbTnNAEY19MKjuJN5T20ylVtuJ3Yf175MtUL76PBJ2NJephVaEuyC1kIWsRGSwALYzqfnJYvWNHGgtH7WuStg7Z3Mli8BJGt0CM7H9CXV8Fy1D7MK2+CcdkiLrtfMxNK9p77V39JGhEYgyZOSJQ1a1GjLjKAmMbDWnktB+5ApBn8vWpJWnssZIF3w2OPeyex5DKDHMtj5KfDU6zvgmqGEa9pBFXjmgDbqshuCRMEwfWDaH+0C8uEQVQ6H6E1wiN5okjEltgIuizbBITiP/T9sX3N/g1kXLdORIFp5LYe113I4RG2Ay8omFgIJS9Us0NQsizZ50ZLY7JPC9jdJ4CpIQ0ogi6iAPLoa9nENcEk7hKmKVkzNVBo9XNJbWJzGQowtp+FTpMQrmbvg9o8q0D4mmZ82uDRpj6PlqeGQyPo8lsIuMBfPLPuIeU+KJamWYdrlySAlDi1Pn1TY+mXDbkEhpKFloFCDqbWU1LNRL35fZ5YaAcndodXnBuO08LoLzGNS6DE77xM8v3wrno4phtQ/E1aeicxBsCVNEMV929pzOfv3lIV1cM04DLecY4ZBe/9AFySBuZoxGvsPktnjkoA8FlpIw8shi6oSZCJ1SEzmnhiVg8IMskACKAS83Qgo74JnQRNeTHkHzgvLIQ/MhhXFjSI8azGOtI94C27ZHdh9wgBH0HHmS/inbsbf4lfDlqdP3JPyhD1umxjEUtRPhRMOR9c8wdIQQazuRpgIMbL+ItzXtsMhrgYS30yQUyFotj4rMCMmDwuyGtHZe0t/78mfef32D3gyiLKC1EEztiSVw6OoE85ph+Gcsg9OcZUMnpN/Cq7f/o4j0DprjdP4M7/suwnHwEzYzhtj7jnM+ibY0sRKFc9HVTMCCjfIMTmv2Avn12rQ23eXI9A6a4X2873/ovLDw5geUwBb1WSdlihfnn965VZN5RAT9qmKI5hd0I7Kpq/w029/6A/t3y2nmAvWSNYtHBpPp1wzWjF91WnDvOeHB0+MkEZZnnLLYQ3NFNx2YI/J0igLXp7DoZkyuJ2EBq2OYMSEfRLaWKGRnrZVzAJIhORCJAW6fPAUqkEIguNI0eU1AqXR9QGqMbAaQXYrwmovIKLhIiLqe1n0H153kWUC9DirH9T2sOwgtKYbbFR3I6L2PChOe3Zlk4q6wdu/xpCw72w+DklADqtx8txscGaWtk7IAKKqWJ5JuSYptrKITaC0Shq+gdUDpKFvQRpaCmlIMaTB65gO5xizGU5xVSyYpIDSmEG1hicTqjAjaTteTn0PM9M/wKuKjzArZzfc8z6BR8Gn8FzdBJ+iFpbM+5Ydhd/6YyydCqo4gdmFbUyEpNoA5ZtCsUfJnMC0N0/hPycMECGbO3vw93+W4pXX1kLC0iixEsVTqXmpLP9kmQL9fFiqRYoHVz0EDY3pbpTfeSWK9YGlJqsTWHkKCi1pZH9xX8Ikb6oZMH3NK4mlRsIfPIXJ4CSFy/wVkAdkQRaYC2lgPmQhhZCHl8AxehOeXFgDn/y98C86gtaem/rHaQ8ePMDA/fv45vb3mmkUA8fBkJytPtRkIw563OdkJkqScjs0BIgkEdGgRJ30NF7sIVlrSkAq+m/cwsDAAIiDti+tjoA/8buf7umA9rCAMe3noJVDuTb93iN9aYVmnKVNTDFlcM/lFj3MwsjaBCsjNZdZmmeiuIRNZGmj7WmUXtnOSxf0NspN1fc9tqep7GvifmbePW0JExdpP2N7Glt6Q4UeyqFJeLDzTYcsIAv2C7IhD8qDNPBNyELWDO1pCdXwyd8D/3VKKLtvaDU4rZamt/eMJu9ZKYzIzcx7Ch6UvOcGCN7zLcF7hhQz0dLU3nNKfBVeSN6BmRk7MTPjA8zK/ph5zzmr9jHv6b32EPOe80vbmOf03/AZq8YHV5yE+5oO0XuS5+Tes4V5z+mGek+9gttR4zTekqASp8WbKU6ru4DIBorReiHEaBeZ2Kg1TqvuZmJkeG2PaeM0vaBZoDQ0mXuqiY5cfOSzqgg5BMuIjGDS0saQRk3qaWPQ0z5WntZdwnsEVI4xKbc//zpZI6huvmxYjYBHdI9KNYq1IWQoWSnPefEYq1Ec2o27P2rmnha0PIfqnvuZXEVFY6p73rijuwuS2GjNCDrOfIGgzGq8tHCNRVXYQ6jCXiu0KVAw7L62A47xdazVX7XC/mL8mwjN24GuSwZU2KmXwy6Q2kfV+m1FWYhyT0lAPuyCiyCNKIcsWuzlYL22Qr+tZpvC+BaLhV6ObpVejh6WPnmtPoCXUt+Dy2ubIF+QM6yXg6QhgmcfUcp6OT4+bkAvx4hxGoFT7RoiPY0gUtdQUCFTbB+WriG/sqNwz9uD5xO34pmYEsgCFEzhIMFSaARU6RryErqGnBJq4Jo+hq6hUaFx+YXPg0qt2GtLioKvAkP9aZvGqT+tRaU/rVC//rS5Yn9aAPWn7TJjf9pYOiHnpbMlbepOSKfYCjgv3AiHICM6ISPXj0MnJOlnZF2kk7Eu7tEUVK6tUY3ANP221L3I34taRvXpuSXZm573uPsSWFHPrb8CTy3eLhRUzNpz662ju3sQ4EOi3Ipbh2p3N9UEhO7uGngV7Ddtd/dO6oSk81B8z1KdWZymfo5gI+wWqJ8joE12YgBqniMoxAuJ2+C9xoznCK5evwPXyHzxjIDa0tMIbnmhmA7Nqp9YWSmeL9DSIKz6hzDBv0n3J49IQzI/lXlLCi18ilsNP7GS1Y7ZBW3ou2vAiRWKeulslDyAGvrUYjUNaGrtooNno+gQGZ2NKmVno1iNlMVBJj4b5SnUBKgJmfpoqVhMoQbrt2Vno3oYNK6j8VmXnkZno57LPoKThp6N4mmU8afwyAop2K2HXDyF5xRfDeqgNsVwSqjFU4tqh07h1Z0Xm5J7EFypeYiMA6NZGzSqtFMr/CcntVfWORetaRT/Ic3l/zLHeU9T93KY5rwnnYeqaTbyvCeHt+IROVmca6qTxQTu94EBhGZWQuKXZZE9t/wM+x8D/+N2MuI86vLkr6ZS/auvF1vkbQkBpWa4LYGD+7LvFv4aZln3cszMP4Irt0bu3eC/P5/1tjT+gskbYHSIkByQrnnyriFdZPR4fPJWKz0g6XrK5P1pusjo8fjkTX16QNL1FLZsBy/Q5Df3mb9GwO5H+7PdCakOUfP20XqznCymPDOy8U9++6gGvLP9iC7aB4eFO8xyz21oXS+7qtUi7rlVh9fWfR3bWkx5o/IV7GjrxxkTXZCp/nl1fW9wcKvrjR6lx/8PEv6iJ2V1GOwAAAAASUVORK5CYII=;" parent="1" vertex="1">
          <mxGeometry x="430" y="20" width="77" height="77" as="geometry" />
        </mxCell>
        <mxCell id="HljNFAt1cwT9hR2t2E4F-30" value="AWS RedShift" style="text;html=1;strokeColor=none;fillColor=none;align=center;verticalAlign=middle;whiteSpace=wrap;rounded=0;" parent="1" vertex="1">
          <mxGeometry x="709.91" y="220" width="70" height="30" as="geometry" />
        </mxCell>
        <mxCell id="HljNFAt1cwT9hR2t2E4F-31" value="AWS DynamoDB" style="text;html=1;strokeColor=none;fillColor=none;align=center;verticalAlign=middle;whiteSpace=wrap;rounded=0;" parent="1" vertex="1">
          <mxGeometry x="433.5" y="110" width="70" height="30" as="geometry" />
        </mxCell>
        <mxCell id="HljNFAt1cwT9hR2t2E4F-33" value="" style="endArrow=classic;html=1;" parent="1" edge="1">
          <mxGeometry width="50" height="50" relative="1" as="geometry">
            <mxPoint x="384" y="340" as="sourcePoint" />
            <mxPoint x="384" y="240" as="targetPoint" />
            <Array as="points" />
          </mxGeometry>
        </mxCell>
        <mxCell id="HljNFAt1cwT9hR2t2E4F-34" value="" style="endArrow=classic;html=1;" parent="1" edge="1">
          <mxGeometry width="50" height="50" relative="1" as="geometry">
            <mxPoint x="410" y="190" as="sourcePoint" />
            <mxPoint x="460" y="190" as="targetPoint" />
            <Array as="points" />
          </mxGeometry>
        </mxCell>
        <mxCell id="HljNFAt1cwT9hR2t2E4F-35" value="" style="edgeStyle=elbowEdgeStyle;elbow=vertical;endArrow=classic;html=1;" parent="1" source="HljNFAt1cwT9hR2t2E4F-29" edge="1">
          <mxGeometry width="50" height="50" relative="1" as="geometry">
            <mxPoint x="540" y="110" as="sourcePoint" />
            <mxPoint x="490" y="150" as="targetPoint" />
          </mxGeometry>
        </mxCell>
        <mxCell id="HljNFAt1cwT9hR2t2E4F-36" value="Validation Rules docs" style="text;html=1;strokeColor=none;fillColor=none;align=center;verticalAlign=middle;whiteSpace=wrap;rounded=0;" parent="1" vertex="1">
          <mxGeometry x="540" y="80" width="70" height="30" as="geometry" />
        </mxCell>
        <mxCell id="wbDpvQPl_opydrpD9ZE_-4" value="" style="edgeStyle=orthogonalEdgeStyle;rounded=0;orthogonalLoop=1;jettySize=auto;html=1;" edge="1" parent="1">
          <mxGeometry relative="1" as="geometry">
            <mxPoint x="420" y="394.70000000000005" as="sourcePoint" />
            <mxPoint x="466" y="394" as="targetPoint" />
            <Array as="points">
              <mxPoint x="460" y="395" />
              <mxPoint x="483" y="394" />
            </Array>
          </mxGeometry>
        </mxCell>
        <mxCell id="wbDpvQPl_opydrpD9ZE_-5" value="Ingest" style="text;html=1;strokeColor=none;fillColor=none;align=center;verticalAlign=middle;whiteSpace=wrap;rounded=0;" vertex="1" parent="1">
          <mxGeometry x="412.75" y="390" width="57" height="30" as="geometry" />
        </mxCell>
        <mxCell id="wbDpvQPl_opydrpD9ZE_-9" value="Validate" style="text;html=1;strokeColor=none;fillColor=none;align=center;verticalAlign=middle;whiteSpace=wrap;rounded=0;" vertex="1" parent="1">
          <mxGeometry x="518.5" y="392" width="56.5" height="30" as="geometry" />
        </mxCell>
        <mxCell id="wbDpvQPl_opydrpD9ZE_-17" value="" style="outlineConnect=0;dashed=0;verticalLabelPosition=bottom;verticalAlign=top;align=center;html=1;shape=mxgraph.aws3.bucket_with_objects;fillColor=#E05243;gradientColor=none;" vertex="1" parent="1">
          <mxGeometry x="469.75" y="373.25" width="48.75" height="41" as="geometry" />
        </mxCell>
        <mxCell id="wbDpvQPl_opydrpD9ZE_-18" value="" style="edgeStyle=orthogonalEdgeStyle;rounded=0;orthogonalLoop=1;jettySize=auto;html=1;" edge="1" parent="1">
          <mxGeometry relative="1" as="geometry">
            <mxPoint x="520" y="395.70000000000005" as="sourcePoint" />
            <mxPoint x="566" y="395" as="targetPoint" />
            <Array as="points">
              <mxPoint x="560" y="396" />
              <mxPoint x="583" y="395" />
            </Array>
          </mxGeometry>
        </mxCell>
        <mxCell id="wbDpvQPl_opydrpD9ZE_-19" value="" style="outlineConnect=0;dashed=0;verticalLabelPosition=bottom;verticalAlign=top;align=center;html=1;shape=mxgraph.aws3.bucket_with_objects;fillColor=#E05243;gradientColor=none;" vertex="1" parent="1">
          <mxGeometry x="565.63" y="371" width="48.75" height="41" as="geometry" />
        </mxCell>
        <mxCell id="wbDpvQPl_opydrpD9ZE_-20" value="Enrich" style="text;html=1;strokeColor=none;fillColor=none;align=center;verticalAlign=middle;whiteSpace=wrap;rounded=0;" vertex="1" parent="1">
          <mxGeometry x="605" y="392" width="57" height="30" as="geometry" />
        </mxCell>
        <mxCell id="wbDpvQPl_opydrpD9ZE_-21" value="" style="edgeStyle=orthogonalEdgeStyle;rounded=0;orthogonalLoop=1;jettySize=auto;html=1;" edge="1" parent="1">
          <mxGeometry relative="1" as="geometry">
            <mxPoint x="615" y="392.70000000000005" as="sourcePoint" />
            <mxPoint x="675" y="392" as="targetPoint" />
            <Array as="points">
              <mxPoint x="655" y="393" />
            </Array>
          </mxGeometry>
        </mxCell>
        <mxCell id="wbDpvQPl_opydrpD9ZE_-22" value="" style="outlineConnect=0;dashed=0;verticalLabelPosition=bottom;verticalAlign=top;align=center;html=1;shape=mxgraph.aws3.bucket_with_objects;fillColor=#E05243;gradientColor=none;" vertex="1" parent="1">
          <mxGeometry x="675.26" y="372" width="48.75" height="41" as="geometry" />
        </mxCell>
        <mxCell id="wbDpvQPl_opydrpD9ZE_-25" value="&lt;b&gt;Raw data&lt;/b&gt;" style="text;html=1;strokeColor=none;fillColor=none;align=center;verticalAlign=middle;whiteSpace=wrap;rounded=0;" vertex="1" parent="1">
          <mxGeometry x="466" y="414.25" width="57" height="30" as="geometry" />
        </mxCell>
        <mxCell id="wbDpvQPl_opydrpD9ZE_-26" value="&lt;b&gt;Trusted data&lt;/b&gt;" style="text;html=1;strokeColor=none;fillColor=none;align=center;verticalAlign=middle;whiteSpace=wrap;rounded=0;" vertex="1" parent="1">
          <mxGeometry x="560.78" y="414.25" width="80" height="30" as="geometry" />
        </mxCell>
        <mxCell id="wbDpvQPl_opydrpD9ZE_-27" value="&lt;b&gt;Refined data&lt;/b&gt;" style="text;html=1;strokeColor=none;fillColor=none;align=center;verticalAlign=middle;whiteSpace=wrap;rounded=0;" vertex="1" parent="1">
          <mxGeometry x="659.63" y="414.25" width="80" height="30" as="geometry" />
        </mxCell>
        <mxCell id="wbDpvQPl_opydrpD9ZE_-30" value="" style="shape=image;verticalLabelPosition=bottom;labelBackgroundColor=#ffffff;verticalAlign=top;aspect=fixed;imageAspect=0;image=data:image/png,iVBORw0KGgoAAAANSUhEUgAAAEwAAABNCAYAAAAMy4KOAAAKcUlEQVR4Ae2ciVfTVxbH+18IuFEFAlhtZ5SERMSt08UqKkultOq0tbWuiLjVEWWHREB6dFTUqsEdrLVWBep4aC2uaHVY3EZFUEFEUaRICPnlO+e+5EGJEJKQALY/znnn/pb7e8uHe3957773e69B/LOKwGtWaXeTcmXhCWhuFHRTadYV06uA3Ss8iaMrw/B9mBeaEqTQHVgIoey8dS1ysHavAHbvYj5yo6Zjd7AEu4Mk2B3sgWcxI4B1cghKGbRZEdDfvehgFJZl36PAHlz+FXnRMxmofSESbJ/qji0B7gxYbfQIaBJ9oEmQAqly6JJl0GZHQqj4zbKWOUirR4A9uFKAE7GfYXeQBziob6e4g5IpsIZ4H1Di4JqSpNAdXALhTs+4arcCqyo+hxPxX2BXkAf2Gy2Kg+KyI2Cm4HRKGZqzFkHoZlftFmBVJedxMnE2Ms2AshRYKzifFlfVkauWX3KQE7bN1qHAHl69iHzlPKgZKE/smGpwOw6nPdmZhXFgXHJXbU6WQvhuGYSKK21baOczhwCrvn4ZP6sWQB3ogf0fWgaKw7MWWAu4RMOPgzZZCt2h5RDuF9kZlSE7uwJ7dPMKfkkJx86p1oPqKjBTcJpEKXTfr4Rwv9iu4OwCrOZWMU6lLcbOQA8csNKiOCgubbUwDoxLAoY0OZqSZND9EAWh8ppdwHUJ2OPbpTiVHgl1sKcRlAfrGvDG2yLtBYyDa+Lgkn3RfGQ1hKrrXQJnE7AnZddQsH451MFeDBS5oC1w2nvG3sBeAqeUQ3c0BkL1/2wCZxWw2vIbOL1hBTJDvO0OisNzFLCXwSmgOxYH4dEtq8BZBOzpvVs4s2kVMkOGOAxUdwHj4LRGV9UoFWjOSYRQU2YROLPANM+f4symKOyaNtQAKtB+rscBmUpHWxgHxqU2yfjjoPJDc04S9C+emQVnFlhl0VkcCvVi/SnThjnqvLuBcXDU8cV6BXSdDLXMAqsqucDCLduNA2NHQfpjvj0F7EWCD6CSQVduPhoiAjNGQ0RgRhDc5TqTIjARmCGQ2Jml2HpftLC/goXRr/HWAHcWtiZL0SVL0ZjgWMviFtnrLYzg7JjqwUJBaqOk7sWmSW7YFDAYRRHD8Dh6OF7E+0CvlAFKGZPNSVJQJIIayBtrD9lrgBnAuLeAITh0bctkd2yYOBip7w9CwjsDETWuP5aO7odwPxfMHemMuQpnLBnTF0kTBmJr8GD88E8JLix4A7eXvwXDjJKUQWwDMsF2kN0O7CUwgR4sJL1tsjs2ThqMdRMGIeldV6wePwDLx/TDolEumDfSGV8pnDCbktwJcxRODBQBm6NwZtdmyZzwqbQPS5/L+mC+nzNWjOuHlImu2BnqhtxZnri8aBjKv/4b6mJHgA11VAaLFGhqLtHg1mSp5izRYcAIDM0fUkiHEoWhybWYOwW44ZsPBkH13uuIfnsAvh7bDxH+fVkjCQaDIzdIAkJgCJo1iYMkeBzkF75OCB/lgqi3++Gbya7YG+aO/NneKIkchspVf2eg6H1IPXlybzqmOBm9HzlI+wArPo/9IZ7IDPRgiQARsIwAN6yfOBhr33sdcf8YiH+N7Y/I0X2x0M+FWYY9wFgDkcBTmV/6OuFzskafPvhM2odZ6OLRLoh9dwA2Bg7CdzM8UDB3CK4vfROPVg9nwMgKCSRLaXLoOpl9Mj80Ki3EtinuzGqU77sijt414/szl1g8ui/C/V2wcJQLFowySDpm537OzKrmj3QGJWsa3xVdXh657QKWXFj5DKjc4PZ0HOHvgjXv9EdagCsyQ92QM8sLl8KH4uHq4dDe7cJYsrmpEVVl13HzyjlcPpWH08eycGJfBo5+m4Ls9Chkxi3E5mUzkfrVJCTOHI/VwTKsmDgUEeMGsYoSvEX+LqyCBJhe4mSJdBwx2nCd7pM7tQeaN5zukQ7Pi56lPCgvypPl52+4T7oEjupAdaE6Ud2ojlRXddxCZKVH4ci2FOTs2Yz8I/txLj8HpZfO4WHZDQjaRtvDO2afbOdm04sGPK+twePKcty/dRW3iy6g6Nc8nD12ACf3Z+DHrSpkpa3Ezph52LjkE6R8+QHiPvbHqsARWDbBG+FjXZllEBxKZCV0je6RDunSM/Qs5UF5UZ6UN5VBZVGZVDbVgepCdbLnn1mXtGdB5vJqbKjHs8cPUV1xBxU3inDzUgFLdEzX6B7p9Ia/XgGsN4CwtA4iMEtJGfVEYCIwKwlYqW7Wwuoq7+JcxhoUbI7G5e2x0OSo0JynYvK37bHs+unN0aDjplwVtHmG+w3HlDi/NQZnMmJwdksM0ytRx7FntaSXq4IuT4X6o231SPd0RgwKt8Wg4biyjT5/zlGyKVcJITcZ+tp7ZhGaBVb537M4/JE39gR7ImeGN5AiB9IVTB6f4c2WWu4JluDYdOO9NMN9fbIMB0O9sDfEk63e2RUowc+z3mBrHWj5JUvpCmgT2+rRSh8q63CYF6D0BdKNuvwZR0qq+4aR0JUV2g6MzxrRTE52qAT1cT4stEIyK1TChkhbAtxwYJoEv8f5sJALhV6erBnOxphbJxvWg22e5IYfp3tB84exG+lVR7XVo/Hon2LWSATWanRmXVK0sFZQ/EgEZoyT2Se8Y5z5Fl2S2xcgWphoYeZD0R2FqUWX7CSGbwpOBCYCs83VTC2po3PRwkQLEy1MHEvSe0AcfAdJWARBjFYYevtiT1/s6dv24yB2K8RuhW2W01FH1fS6XSyMfwmyfYpHmxB1Y4IU2R/9uULUbDkUfQlSZn5/DLMvfW3DcxTuSII69C3kzfQ2TF6sk6M+XoqsMG9QPP9Vj+nTElDaUKQpdQx0J9MBjfklCWaB8bBZXVUFSvck4cXhaKDkOHSV15A9ZzxoNuhVBcZWKhKolDHQ/ScNQu193lyz0iJg7eWw71MF9oV4tgusNrrtbFBvmjVq+XptrT+EE2shPKlor3kdXrMJmF4v4OyWWOwO8cbeYAmyQz1B7zWslbF5S5pOUwdJ0Jum2VpBjYLwkwrC47sdQjF3wyZgPMOa26XIT4vEoY+HsLWi2m1hEH5KQf3FI1CHvtmy9rWnLOz3eB+2lpV9LL/WD0JuEoRHd3j1bZJdAsZLrLtbCqHyKqAX2KXGRg3UocPYLgM0OdsTwFo+jleNhHA83upPlXnbTKVdgJlm2lBbjR2B7sgMkrDV1e0BowbRenvaXoa7rj1mvltAKRUQjsZCX33TtHpdOncIsGZNI/JTFxn22vnQ8MPAlwqwb61TfNk6i0fx/lCHeIPW8hOsrgBrBSWH7sgaCA+7tt1CR1QdAowXxvfeISC/0GKUdXJolQpo986HvjQHdbevsD4ebRBiK7BWUL7GDT2u8uIdIh0KjNf4QfF5FG+KRHP+v6Gvad32oL6mCuppre86ayyM4m70MtcqfQ1bxjwo4cU5VHYLsI5a8Lyq3GpgHBRtvNbswE2JOqpzjwKre3CHdT1ou6zOXJJve0W7N2kPLoX+nmO3veqVwDT1T5EXN4t1fvnWfqbrwziov/QeiKb/PXGXTVMiFp6L+7haCMpUTdwp2JTIK3z+f5dokgVuqOfLAAAAAElFTkSuQmCC;" vertex="1" parent="1">
          <mxGeometry x="560.78" y="160" width="59.22" height="60" as="geometry" />
        </mxCell>
        <mxCell id="wbDpvQPl_opydrpD9ZE_-33" value="AWS EMR" style="text;html=1;strokeColor=none;fillColor=none;align=center;verticalAlign=middle;whiteSpace=wrap;rounded=0;" vertex="1" parent="1">
          <mxGeometry x="550.63" y="220" width="70" height="30" as="geometry" />
        </mxCell>
        <mxCell id="wbDpvQPl_opydrpD9ZE_-36" value="" style="endArrow=classic;html=1;" edge="1" parent="1">
          <mxGeometry width="50" height="50" relative="1" as="geometry">
            <mxPoint x="522" y="191" as="sourcePoint" />
            <mxPoint x="572" y="191" as="targetPoint" />
            <Array as="points" />
          </mxGeometry>
        </mxCell>
      </root>
    </mxGraphModel>
  </diagram>
</mxfile>
